<svg xmlns="http://www.w3.org/2000/svg" viewBox="0 0 682.61 564.26"><defs><style>.cls-1{fill:none;stroke:#fff;stroke-linecap:round;stroke-linejoin:round;stroke-width:2px;}</style></defs><g id="Camada_2" data-name="Camada 2"><g id="Graphic_Elements" data-name="Graphic Elements"><path class="cls-1" d="M443.88,559.66v1.53c-.05,1-1.42,2-3.58,2h-198c-2.16,0-3.53-1-3.58-2v-.06c0-.53.38-1.07,1.21-1.47Z"/><path class="cls-1" d="M440.3,563.26h-198a3.31,3.31,0,0,1-2.07-6.06L260.11,544a14.56,14.56,0,0,0,6.57-10.6l6.48-62.94H409.45l6.48,62.94a14.54,14.54,0,0,0,6.58,10.6l19.86,13.16C445.22,559.08,443.78,563.26,440.3,563.26Z"/><rect class="cls-1" x="1" y="1" width="680.61" height="469.14" rx="16.45"/><path class="cls-1" d="M681.61,407.94v45.9a16.12,16.12,0,0,1-4.14,10.8,16.42,16.42,0,0,1-12.31,5.49H17.45a16.46,16.46,0,0,1-12.31-5.49A16.12,16.12,0,0,1,1,453.84v-45.9Z"/><rect class="cls-1" x="29.45" y="31.53" width="623.71" height="347.6"/></g></g></svg>