<svg xmlns="http://www.w3.org/2000/svg" viewBox="0 0 620.61 812.85"><defs><style>.cls-1{fill:none;stroke:#fff;stroke-miterlimit:10;stroke-width:2px;}</style></defs><g id="Camada_2" data-name="Camada 2"><g id="Graphic_Elements" data-name="Graphic Elements"><path class="cls-1" d="M614.91,780.61V37A31.27,31.27,0,0,0,583.67,5.72H32.25A31.27,31.27,0,0,0,1,37V780.61a31.27,31.27,0,0,0,31.25,31.24H583.67A31.27,31.27,0,0,0,614.91,780.61ZM32.25,789.53a8.93,8.93,0,0,1-8.92-8.92V37A8.93,8.93,0,0,1,32.25,28H583.67A8.93,8.93,0,0,1,592.59,37V780.61a8.93,8.93,0,0,1-8.92,8.92Z"/><rect class="cls-1" x="23.33" y="28.04" width="569.26" height="761.49" rx="8.92"/><path class="cls-1" d="M596.73,70.62h41.06a1.67,1.67,0,0,1,1.67,1.67v3a0,0,0,0,1,0,0h-44.4a0,0,0,0,1,0,0v-3A1.67,1.67,0,0,1,596.73,70.62Z" transform="translate(690.22 -544.3) rotate(90)"/><path class="cls-1" d="M596.73,121h41.06a1.67,1.67,0,0,1,1.67,1.67v3a0,0,0,0,1,0,0h-44.4a0,0,0,0,1,0,0v-3A1.67,1.67,0,0,1,596.73,121Z" transform="translate(740.61 -493.91) rotate(90)"/><path class="cls-1" d="M492,1h51.64a1.67,1.67,0,0,1,1.67,1.67V6.23a0,0,0,0,1,0,0h-55a0,0,0,0,1,0,0V2.67A1.67,1.67,0,0,1,492,1Z"/></g></g></svg>