<?xml version="1.0" encoding="utf-8"?>
<!-- Generator: Adobe Illustrator 24.2.3, SVG Export Plug-In . SVG Version: 6.00 Build 0)  -->
<svg version="1.1" id="Camada_1" xmlns="http://www.w3.org/2000/svg" xmlns:xlink="http://www.w3.org/1999/xlink" x="0px" y="0px"
	 viewBox="0 0 211 61" style="enable-background:new 0 0 211 61;" xml:space="preserve">
<style type="text/css">
	.st0{fill:#FFFFFF;}
</style>
<g id="logo-coprel" transform="translate(-583.496 -474.854)">
	<path id="simbol" class="st0" d="M611.3,531c-0.2-2.6,1.8-4.8,4.4-5c2.6-0.2,4.8,1.8,5,4.4c0.2,2.6-1.8,4.8-4.4,5
		c-0.1,0-0.2,0-0.3,0C613.5,535.4,611.5,533.4,611.3,531z M605.7,531.8c-1.3-0.4-2-1.8-1.5-3c0,0,0,0,0,0c0.4-1.3,1.8-2,3.1-1.5
		c1.3,0.4,2,1.8,1.5,3c0,0,0,0,0,0c-0.3,1-1.3,1.7-2.3,1.7C606.2,532,605.9,531.9,605.7,531.8L605.7,531.8z M623.2,529.1
		c-0.6-1.2-0.1-2.6,1.1-3.2c0,0,0,0,0,0c1.2-0.6,2.6-0.1,3.2,1.1c0.6,1.2,0.1,2.6-1.1,3.2c0,0,0,0,0,0c-0.3,0.2-0.7,0.2-1,0.2
		C624.5,530.5,623.6,530,623.2,529.1L623.2,529.1z M594.9,528.5c-2-1.7-2.3-4.6-0.6-6.6c0,0,0,0,0,0c1.7-2,4.7-2.2,6.7-0.6
		c2,1.7,2.3,4.6,0.6,6.6c0,0,0,0,0,0c-0.9,1.1-2.2,1.7-3.6,1.7C596.8,529.7,595.7,529.3,594.9,528.5L594.9,528.5z M629.9,525.7
		c-1.9-1.8-2-4.7-0.3-6.6c0,0,0,0,0,0c1.8-1.9,4.7-2,6.7-0.3c1.9,1.8,2,4.7,0.3,6.6c0,0,0,0,0,0c-0.9,1-2.2,1.5-3.5,1.5
		C631.9,527,630.8,526.5,629.9,525.7L629.9,525.7z M609.7,523.8c-1.5-0.4-2.5-1.9-2.2-3.4c0,0,0,0,0,0c0.4-1.5,1.9-2.5,3.5-2.2
		c1.5,0.4,2.5,1.9,2.2,3.4c0,0,0,0,0,0c-0.3,1.3-1.5,2.2-2.8,2.2C610.1,523.9,609.9,523.9,609.7,523.8L609.7,523.8z M614.8,521.5
		c-0.1-0.8,0.4-1.6,1.2-1.7c0.8-0.1,1.6,0.4,1.7,1.2c0.1,0.8-0.4,1.6-1.2,1.7c0,0,0,0,0,0c-0.1,0-0.2,0-0.2,0
		C615.5,522.7,614.9,522.2,614.8,521.5L614.8,521.5z M619.4,520.8c-0.8-1.4-0.4-3.1,1-3.9c0,0,0,0,0,0c1.4-0.8,3.1-0.4,3.9,1
		c0.8,1.4,0.4,3.1-1,3.9c0,0,0,0,0,0c-0.4,0.3-1,0.4-1.5,0.4C620.8,522.2,619.9,521.7,619.4,520.8L619.4,520.8z M604.1,519.8
		c-0.7-0.5-0.8-1.4-0.4-2c0,0,0,0,0,0c0.5-0.7,1.4-0.8,2.1-0.4c0.7,0.5,0.8,1.4,0.4,2c0,0,0,0,0,0c-0.3,0.4-0.7,0.6-1.2,0.6
		C604.7,520,604.4,519.9,604.1,519.8L604.1,519.8z M589.6,518.6c-0.6-1.2-0.2-2.6,1-3.3c0,0,0,0,0,0c1.2-0.6,2.6-0.2,3.3,1
		c0.6,1.2,0.2,2.6-1,3.3c0,0,0,0,0,0c-0.4,0.2-0.7,0.3-1.1,0.3C590.8,519.9,590,519.4,589.6,518.6L589.6,518.6z M598.5,515.9
		c-0.9-1.3-0.5-3.1,0.8-4c0,0,0,0,0,0c1.3-0.9,3.1-0.5,4,0.8c0.9,1.3,0.5,3.1-0.8,4c0,0,0,0,0,0c-0.5,0.3-1,0.5-1.6,0.5
		C599.9,517.2,599,516.7,598.5,515.9L598.5,515.9z M625.4,516.6c-0.6-0.5-0.8-1.4-0.3-2.1c0,0,0,0,0,0c0.5-0.6,1.4-0.8,2.1-0.3
		c0.6,0.5,0.8,1.4,0.3,2.1c0,0,0,0,0,0c-0.3,0.4-0.7,0.6-1.2,0.6C626,516.9,625.7,516.8,625.4,516.6L625.4,516.6z M584,508.8
		c-0.3-2.6,1.6-4.9,4.2-5.2c0,0,0,0,0,0c2.6-0.3,4.9,1.6,5.2,4.2c0.3,2.6-1.6,4.9-4.2,5.2c0,0,0,0,0,0c-0.2,0-0.3,0-0.5,0
		C586.3,513,584.3,511.2,584,508.8L584,508.8z M597.2,509.1c-0.2-0.8,0.4-1.6,1.2-1.7c0,0,0,0,0,0c0.8-0.2,1.6,0.4,1.7,1.1
		c0.2,0.8-0.4,1.6-1.2,1.7c0,0,0,0,0,0c-0.1,0-0.2,0-0.3,0C598,510.3,597.4,509.8,597.2,509.1L597.2,509.1z M598.2,505.7
		c-1.6-0.3-2.6-1.8-2.3-3.3c0,0,0,0,0,0c0.3-1.6,1.8-2.6,3.4-2.3c1.6,0.3,2.6,1.8,2.3,3.3c0,0,0,0,0,0c-0.3,1.4-1.4,2.4-2.8,2.4
		C598.5,505.8,598.4,505.8,598.2,505.7L598.2,505.7z M588.7,501c-1.3-0.4-2-1.7-1.7-3c0,0,0,0,0,0c0.4-1.3,1.7-2,3-1.7
		c1.3,0.4,2,1.7,1.7,3c0,0,0,0,0,0c-0.3,1-1.2,1.8-2.3,1.8C589.2,501.1,589,501,588.7,501L588.7,501z M624.1,498.1
		c-1-1.2-0.8-3,0.4-4c0,0,0,0,0,0c1.2-1,3.1-0.8,4,0.5c1,1.2,0.8,3-0.5,4c0,0,0,0,0,0c-0.5,0.4-1.1,0.6-1.8,0.6
		C625.5,499.2,624.6,498.8,624.1,498.1L624.1,498.1z M600.1,498.7c-0.7-0.4-0.9-1.3-0.5-2c0,0,0,0,0,0c0.4-0.7,1.3-0.9,2-0.5
		c0.7,0.4,0.9,1.3,0.5,2c0,0,0,0,0,0c-0.3,0.4-0.7,0.7-1.3,0.7C600.6,498.9,600.4,498.8,600.1,498.7L600.1,498.7z M602.7,494.8
		c-0.9-1.3-0.6-3.1,0.6-4c0,0,0,0,0,0c1.3-0.9,3.1-0.6,4,0.6c0.9,1.3,0.6,3.1-0.6,4c0,0,0,0,0,0c-0.5,0.4-1.1,0.5-1.7,0.5
		C604.1,496,603.2,495.6,602.7,494.8L602.7,494.8z M590.8,493.7c-2.1-1.6-2.5-4.5-0.9-6.6c0,0,0,0,0,0c1.6-2.1,4.5-2.5,6.6-0.9
		c2.1,1.6,2.5,4.5,0.9,6.6c0,0,0,0,0,0c-0.9,1.2-2.3,1.8-3.8,1.8C592.6,494.7,591.6,494.3,590.8,493.7L590.8,493.7z M621.2,493.7
		c-0.7-0.4-1-1.3-0.6-2c0,0,0,0,0,0c0.4-0.7,1.3-1,2-0.6c0.7,0.4,1,1.3,0.6,2c0,0,0,0,0,0c-0.3,0.5-0.8,0.7-1.3,0.7
		C621.6,493.9,621.4,493.8,621.2,493.7L621.2,493.7z M633.3,492.3c-0.7-1.1-0.4-2.6,0.7-3.3c0,0,0,0,0,0c1.1-0.7,2.6-0.4,3.4,0.7
		c0.7,1.1,0.4,2.6-0.7,3.3c0,0,0,0,0,0c-0.4,0.3-0.9,0.4-1.3,0.4C634.5,493.4,633.7,493,633.3,492.3L633.3,492.3z M615.9,493.3
		c-1.6-0.2-2.7-1.7-2.5-3.2c0,0,0,0,0,0c0.2-1.6,1.7-2.7,3.2-2.5c1.6,0.2,2.7,1.7,2.5,3.2c0,0,0,0,0,0c-0.2,1.4-1.4,2.5-2.9,2.5
		C616.2,493.3,616,493.3,615.9,493.3L615.9,493.3z M609,491.1c-0.2-0.8,0.3-1.6,1.1-1.8c0,0,0,0,0,0c0.8-0.2,1.6,0.3,1.8,1.1
		c0.2,0.8-0.3,1.6-1.1,1.8c0,0,0,0,0,0c-0.1,0-0.2,0-0.4,0C609.7,492.2,609.1,491.7,609,491.1L609,491.1z M625.8,488
		c-2.1-1.5-2.7-4.4-1.2-6.5c0,0,0,0,0,0c1.5-2.1,4.4-2.7,6.6-1.2c2.1,1.5,2.7,4.4,1.2,6.5c0,0,0,0,0,0c-0.9,1.3-2.3,2-3.9,2
		C627.5,488.8,626.6,488.5,625.8,488L625.8,488z M598.7,484.7c-0.7-1.1-0.3-2.6,0.8-3.3c0,0,0,0,0,0c1.1-0.7,2.6-0.3,3.3,0.8
		c0.7,1.1,0.3,2.6-0.8,3.3c0,0,0,0,0,0c-0.4,0.2-0.8,0.3-1.2,0.3C599.9,485.9,599.1,485.4,598.7,484.7L598.7,484.7z M605.2,480.8
		c-0.4-2.6,1.4-5,3.9-5.4c0,0,0,0,0,0c2.6-0.4,5,1.4,5.4,3.9c0.4,2.6-1.4,5-3.9,5.4c0,0,0,0,0,0c-0.2,0-0.5,0.1-0.7,0.1
		C607.5,484.8,605.6,483.1,605.2,480.8L605.2,480.8z M619,482.7c-1.3-0.3-2.1-1.6-1.8-2.9c0,0,0,0,0,0c0.3-1.3,1.6-2.1,2.9-1.8
		c1.3,0.3,2.1,1.6,1.8,2.9c0,0,0,0,0,0c-0.3,1.1-1.2,1.9-2.4,1.9C619.4,482.7,619.2,482.7,619,482.7L619,482.7z"/>
	<path id="letter" class="st0" d="M712,530.3v-36.3h5.6v3.7c2.1-2.9,5.5-4.6,9.1-4.4c3.5,0,6.8,1.4,9.1,4c2.5,2.6,3.9,6.1,3.8,9.7
		c0.1,3.6-1.3,7.1-3.8,9.7c-2.4,2.5-5.7,4-9.1,3.9c-3.6,0.2-7-1.5-9.1-4.4v14H712z M720,501.1c-1.6,1.6-2.4,3.7-2.3,5.9
		c-0.1,2.2,0.8,4.4,2.3,5.9c1.5,1.6,3.7,2.4,5.9,2.4c2.2,0.1,4.3-0.8,5.9-2.4c1.6-1.6,2.4-3.7,2.3-5.9c0.1-2.2-0.8-4.4-2.3-5.9
		c-1.5-1.6-3.7-2.4-5.9-2.4C723.6,498.7,721.5,499.5,720,501.1L720,501.1z M761.7,516.8c-2.6-2.6-4-6.1-3.9-9.8
		c-0.1-3.6,1.3-7.1,3.8-9.7c2.6-2.6,6.2-4,9.9-3.9c3.6-0.1,7,1.4,9.4,4c2.4,2.6,3.7,6.1,3.7,9.7c0,0.8-0.1,1.6-0.2,2.3h-20.7
		c0.3,1.8,1.3,3.5,2.9,4.5c1.6,1.1,3.5,1.6,5.5,1.6c2.6,0.2,5.2-1.1,6.7-3.2l4.6,2.7c-2.6,3.8-6.4,5.6-11.4,5.6
		C768.1,520.8,764.4,519.4,761.7,516.8L761.7,516.8z M766.2,500.2c-1.4,1.2-2.4,2.8-2.6,4.7h15.3c-0.2-1.9-1.2-3.6-2.6-4.8
		c-1.4-1.1-3.1-1.6-4.8-1.6C769.5,498.4,767.7,499,766.2,500.2L766.2,500.2z M684.5,516.7c-2.6-2.5-4.1-6-4-9.7
		c-0.1-3.6,1.4-7.2,4-9.7c2.6-2.6,6.1-4,9.7-3.9c3.6-0.1,7.2,1.3,9.7,3.9c2.6,2.5,4.1,6,4,9.7c0.1,3.6-1.4,7.1-4,9.7
		c-2.6,2.6-6.1,4-9.7,3.9C690.6,520.7,687.1,519.3,684.5,516.7L684.5,516.7z M688.5,501.2c-1.6,1.5-2.4,3.7-2.3,5.9
		c-0.1,2.2,0.8,4.3,2.3,5.9c1.5,1.5,3.6,2.4,5.8,2.3c2.2,0.1,4.2-0.8,5.8-2.3c1.6-1.5,2.4-3.7,2.3-5.9c0.1-2.2-0.8-4.3-2.3-5.9
		c-1.5-1.5-3.6-2.4-5.8-2.3C692.1,498.8,690,499.6,688.5,501.2L688.5,501.2z M657.9,516.7c-2.6-2.6-4-6.1-3.9-9.7
		c-0.1-3.6,1.3-7.2,3.9-9.7c2.6-2.6,6.1-4,9.8-3.9c2.4,0,4.8,0.6,6.9,1.8c2,1.1,3.6,2.8,4.7,4.9l-4.8,2.8c-0.6-1.2-1.5-2.2-2.7-2.9
		c-1.3-0.7-2.7-1.1-4.1-1.1c-2.2-0.1-4.2,0.8-5.7,2.3c-1.5,1.5-2.4,3.6-2.3,5.8c-0.1,2.2,0.8,4.3,2.3,5.8c1.5,1.5,3.6,2.4,5.7,2.3
		c1.4,0,2.9-0.4,4.1-1.1c1.2-0.7,2.1-1.7,2.8-2.9l4.8,2.7c-1.1,2.1-2.8,3.8-4.8,4.9c-2.1,1.2-4.5,1.8-6.9,1.8
		C664.1,520.8,660.5,519.3,657.9,516.7L657.9,516.7z M788.4,520v-37.8h5.6V520L788.4,520z M743.7,520v-25.9h5.6v4.4
		c1.4-3.2,4.1-4.8,8-4.8v6.1c-2-0.2-4,0.4-5.6,1.5c-1.6,1.2-2.4,3.1-2.4,5.7V520L743.7,520z"/>
</g>
</svg>
