<svg xmlns="http://www.w3.org/2000/svg" viewBox="0 0 319.41 109.86"><defs><style>.cls-1{fill:#fff;fill-rule:evenodd;}</style></defs><g id="Camada_2" data-name="Camada 2"><g id="Camada_1-2" data-name="Camada 1"><path class="cls-1" d="M138.05,56.78c-3.81,3.18-3.14,7.54,1.56,8.84,6.61,1.87,12.27-1.68,10.14-5.85s-9.24-7-19.32-6.93c-9.47.08-16,1.57-17.71,7.58-1.17,4.82,2.25,8,6.39,9.87,3.92,1.83,8.8,3.1,11.65,4.78,2.3,1.49,2.86,3.9-1.06,5.51a12.86,12.86,0,0,1-7.9-.19c1.18-5.47-1.57-9.53-7.62-9.26-4.42,0-9.58,3-6.33,7.54,3,3.71,9.08,5.89,16.81,6.08,11.82,0,19.83-2.53,20.67-9,.17-4.75-3.31-7.58-9-9.57a81,81,0,0,1-8.85-3.82,2.92,2.92,0,0,1-.79-4.71c2.58-2.45,7.62-2.14,11.38-.92Z"/><path class="cls-1" d="M178.91,56.78c-1.35,5.51.16,10.14,8.57,9.22,5.82-1.15,6.61-4.21,4.65-7.76-2.64-3.52-8.57-5.17-16-5.13-14.34.08-24.7,8.3-25,17.52,0,6.77,6.38,13.93,17.59,14.08,10.75.11,16-3.52,19.21-9.87.39-1.3-1.06-1.76-2.13-.65a15.75,15.75,0,0,1-15.8,2.45c-5.43-2.57-6.38-6.47-5.37-10.71,1.79-6.51,7.5-9.07,14.23-9.15Z"/><path class="cls-1" d="M249.3,72.92c9.08-.57,8.74-.54,17.31-2.75,6.17-1.84,8.91-7.39,7.45-11.44-1.28-3.52-8.12-5.86-14.45-5.7-11.87-.27-24.31,8.3-24.59,17.52,0,6.77,6.39,13.92,17.59,14.08,10.75.11,17.08-3,20.28-9.38.39-1.3-1.07-1.76-2.13-.65-8.91,7.23-20.17,2.49-21.46-1.68Zm-1-4c7.45-.5,12.27-2.45,15.8-6.43,1.51-3.94-2.3-5.66-9.41-3.17-4.43,2.22-6.61,5.39-6.39,9.6Z"/><path class="cls-1" d="M280.81,53.08h19.1c-.22.85-.45,1.69-.67,2.57,3.36-1.69,6.72-3.06,10.64-3,5.89-.08,9.64,2.86,9.53,6,.11,4.63-3.81,7.54-9.92,7.2-6.61-.35-8.74-4-9.58-7.2-1.79.46-2.41,1.11-2.63,2.3-1.9,6.16-3.81,12.36-5.66,18.55-.95,3.06,1.29,3.68,2.64,4.86H271.79c1.91-1.07,4.43-1.83,5.27-3.63,2.41-7.73,4.7-15.46,7.11-23.19.51-2.25-1.57-2.94-3.36-4.4Z"/><path class="cls-1" d="M219.5,39.64h-17c1.68,1.41,3.25,2.1,2.47,4.4q-6.39,18.3-12.77,36.65c-.84,1.79-3.7,2.48-6.11,3.55h22.63c-1-.65-4.14-1.56-3.47-3.32,2.41-6.7,5-14.12,7.34-20.82.95-1.91,7-2.52,5.15,1.34q-2.43,7.86-4.87,15.73c-.84,3.06,1.12,7.11,7.56,7.07,5,0,7.28-1.56,9.13-4.4,1-1.53.17-2.18-.84-1.56-3.58,2.29-3.64.42-2.86-1.65,1.68-5.58,3.42-11.17,5.16-16.72,1.85-7.23-9.19-8.45-17.14-4.4,1.9-5.31,3.75-10.59,5.6-15.87Z"/><path class="cls-1" d="M102.21,40.79c4.41,0,8,2.35,8,5.25s-3.58,5.25-8,5.25-8-2.35-8-5.25,3.58-5.25,8-5.25Z"/><path class="cls-1" d="M88.32,56.78c2.13-2.48,6-3.94,11-4,5.71-.11,8.12,3.41,6.78,7.08L99.75,78.63c-.78,2,1.35,1.83,3.25.07.56-.53,1.63-.34,1.29.5a12.58,12.58,0,0,1-11,5.2c-6.28,0-8.24-4.47-6.89-7.72,1.9-5.82,3.86-11.6,5.82-17.37.73-1.46,0-2.18-1.73-1.61-.67.19-1.79.77-2.41.5s-.34-.81.22-1.42Z"/><path class="cls-1" d="M83.41,46.71l8.74-2.32-.33,4.86-10,4.26L71.59,94.69c-2.24,9.07-8,15.17-18.65,15.17H27l.79-5.19H40.33c5.1.38,9.64-3.13,11.43-10Q55.63,78.82,59.49,63L12.6,82.82l9.53-19.54L62,52.49c.12-.6.28-1.19.45-1.78-12.32,2.53-24.31,4.69-37,4.8C12.1,55.78.28,50.17,0,38.51.22,28.9,9.47,20.21,20.73,14.6,68.29-7.63,114.78-1.21,164.14,12.28q-11.59,8.5-23.25,17C117.59,19.46,97,13.79,72.38,13.36c-18.1-.16-30.93.86-46.5,10.74-9.63,6.48-12.27,17.27-1.12,21.43,13.5,4.26,25.83,2.8,38.6.75,1.68-6.53,3.19-13.06,4.82-19.59L90.25,19.3,83.41,46.71Z"/></g></g></svg>