<?xml version="1.0" encoding="utf-8"?>
<!-- Generator: Adobe Illustrator 24.2.3, SVG Export Plug-In . SVG Version: 6.00 Build 0)  -->
<svg version="1.1" id="Camada_1" xmlns="http://www.w3.org/2000/svg" xmlns:xlink="http://www.w3.org/1999/xlink" x="0px" y="0px"
	 viewBox="0 0 620.1 212" style="enable-background:new 0 0 620.1 212;" xml:space="preserve">
<style type="text/css">
	.st0{fill:#FFFFFF;}
</style>
<polygon class="st0" points="103.7,71.2 103.8,71.6 103.9,72 104,72.4 104.1,72.7 104.2,73.1 104.3,73.5 104.5,73.8 104.7,74.2 
	104.9,74.5 105,74.8 105.3,75.1 105.5,75.4 105.8,75.7 106,76 106.3,76.2 106.6,76.5 106.9,76.7 107.2,76.9 107.5,77.1 107.8,77.3 
	108.2,77.5 108.5,77.6 108.9,77.8 109.2,77.9 109.6,78 110,78.1 110.3,78.2 110.8,78.2 111.2,78.3 111.5,78.3 111.9,78.3 
	112.3,78.2 112.8,78.2 113.1,78.1 113.5,78 113.9,77.9 114.2,77.8 114.6,77.6 114.9,77.5 115.3,77.3 115.6,77.1 115.9,76.9 
	116.2,76.7 116.5,76.5 116.8,76.2 117.1,76 117.3,75.7 117.6,75.4 117.8,75.1 118,74.8 118.2,74.5 118.4,74.2 118.6,73.8 
	118.8,73.5 118.9,73.1 119,72.7 119.1,72.4 119.2,72 119.3,71.6 119.3,71.2 119.4,70.8 119.4,70.4 119.4,11.9 119.4,11.4 
	119.3,11.1 119.3,10.7 119.2,10.3 119.1,9.9 119,9.5 118.9,9.2 118.8,8.8 118.6,8.5 118.4,8.1 118.2,7.8 118,7.5 117.8,7.2 
	117.6,6.9 117.3,6.6 117.1,6.3 116.8,6.1 116.5,5.8 116.2,5.6 115.9,5.4 115.6,5.2 115.3,5 114.9,4.8 114.6,4.6 114.2,4.5 
	113.9,4.4 113.5,4.3 113.1,4.2 112.8,4.1 112.3,4.1 111.9,4 111.5,4 111.2,4 110.8,4.1 110.3,4.1 110,4.2 109.6,4.3 109.2,4.4 
	108.9,4.5 108.5,4.6 108.2,4.8 107.8,5 107.5,5.2 107.2,5.4 106.9,5.6 106.6,5.8 106.3,6.1 106,6.3 105.8,6.6 105.5,6.9 105.3,7.2 
	105,7.5 104.9,7.8 104.7,8.1 104.5,8.5 104.3,8.8 104.2,9.2 104.1,9.5 104,9.9 103.9,10.3 103.8,10.7 103.7,11.1 103.7,11.4 
	103.7,11.9 103.7,70.4 103.7,70.8 "/>
<polygon class="st0" points="103.7,201.7 103.8,202.1 103.9,202.5 104,202.9 104.1,203.2 104.2,203.6 104.3,204 104.5,204.3 
	104.7,204.7 104.9,205 105,205.3 105.3,205.6 105.5,205.9 105.8,206.2 106,206.4 106.3,206.7 106.6,206.9 106.9,207.2 107.2,207.4 
	107.5,207.6 107.8,207.8 108.2,208 108.5,208.2 108.9,208.2 109.2,208.4 109.6,208.5 110,208.6 110.3,208.6 110.8,208.7 
	111.2,208.7 111.5,208.8 111.9,208.7 112.3,208.7 112.8,208.6 113.1,208.6 113.5,208.5 113.9,208.4 114.2,208.2 114.6,208.2 
	114.9,208 115.3,207.8 115.6,207.6 115.9,207.4 116.2,207.2 116.5,206.9 116.8,206.7 117.1,206.4 117.3,206.2 117.6,205.9 
	117.8,205.6 118,205.3 118.2,205 118.4,204.7 118.6,204.3 118.8,204 118.9,203.6 119,203.2 119.1,202.9 119.2,202.5 119.3,202.1 
	119.3,201.7 119.4,201.3 119.4,200.9 119.4,142.4 119.4,141.9 119.3,141.5 119.3,141.2 119.2,140.8 119.1,140.4 119,140 
	118.9,139.7 118.8,139.3 118.6,139 118.4,138.6 118.2,138.3 118,138 117.8,137.7 117.6,137.4 117.3,137.1 117.1,136.8 116.8,136.6 
	116.5,136.3 116.2,136.1 115.9,135.8 115.6,135.6 115.3,135.4 114.9,135.3 114.6,135.1 114.2,135 113.9,134.9 113.5,134.8 
	113.1,134.7 112.8,134.6 112.3,134.6 111.9,134.5 111.5,134.5 111.2,134.5 110.8,134.6 110.3,134.6 110,134.7 109.6,134.8 
	109.2,134.9 108.9,135 108.5,135.1 108.2,135.3 107.8,135.4 107.5,135.6 107.2,135.8 106.9,136.1 106.6,136.3 106.3,136.6 
	106,136.8 105.8,137.1 105.5,137.4 105.3,137.7 105,138 104.9,138.3 104.7,138.6 104.5,139 104.3,139.3 104.2,139.7 104.1,140 
	104,140.4 103.9,140.8 103.8,141.2 103.7,141.5 103.7,141.9 103.7,142.4 103.7,200.9 103.7,201.3 "/>
<polygon class="st0" points="150.6,98.6 150.2,98.6 149.8,98.7 149.4,98.8 149.1,98.8 148.7,98.9 148.3,99.1 148,99.2 147.6,99.4 
	147.3,99.6 147,99.7 146.7,99.9 146.4,100.1 146.1,100.4 145.8,100.6 145.5,100.9 145.2,101.2 145,101.5 144.8,101.8 144.5,102.1 
	144.3,102.4 144.2,102.7 144,103 143.8,103.4 143.7,103.7 143.5,104.1 143.4,104.5 143.4,104.8 143.3,105.2 143.2,105.6 143.2,106 
	143.2,106.4 143.2,106.8 143.2,107.2 143.3,107.6 143.4,108 143.4,108.4 143.5,108.7 143.7,109.1 143.8,109.5 144,109.8 
	144.2,110.1 144.3,110.5 144.5,110.8 144.8,111.1 145,111.4 145.2,111.7 145.5,112 145.8,112.2 146.1,112.4 146.4,112.7 
	146.7,112.9 147,113.1 147.3,113.3 147.6,113.5 148,113.6 148.3,113.8 148.7,113.9 149.1,114 149.4,114.1 149.8,114.2 150.2,114.2 
	150.6,114.2 151,114.2 209.5,114.2 210,114.2 210.3,114.2 210.7,114.2 211.1,114.1 211.5,114 211.9,113.9 212.3,113.8 212.6,113.6 
	213,113.5 213.3,113.3 213.6,113.1 213.9,112.9 214.2,112.7 214.5,112.4 214.8,112.2 215.1,112 215.3,111.7 215.6,111.4 
	215.8,111.1 216,110.8 216.2,110.5 216.4,110.1 216.6,109.8 216.8,109.5 216.9,109.1 217,108.7 217.1,108.4 217.2,108 217.3,107.6 
	217.4,107.2 217.4,106.8 217.4,106.4 217.4,106 217.4,105.6 217.3,105.2 217.2,104.8 217.1,104.5 217,104.1 216.9,103.7 
	216.8,103.4 216.6,103 216.4,102.7 216.2,102.4 216,102.1 215.8,101.8 215.6,101.5 215.3,101.2 215.1,100.9 214.8,100.6 
	214.5,100.4 214.2,100.1 213.9,99.9 213.6,99.7 213.3,99.6 213,99.4 212.6,99.2 212.3,99.1 211.9,98.9 211.5,98.8 211.1,98.8 
	210.7,98.7 210.3,98.6 210,98.6 209.5,98.6 151,98.6 "/>
<polygon class="st0" points="5.9,107.6 5.9,108 6,108.4 6.1,108.7 6.3,109.1 6.4,109.5 6.5,109.8 6.7,110.1 6.9,110.5 7.1,110.8 
	7.3,111.1 7.6,111.4 7.8,111.7 8.1,112 8.3,112.2 8.6,112.5 8.9,112.7 9.2,112.9 9.5,113.1 9.9,113.3 10.2,113.5 10.6,113.6 
	10.9,113.8 11.3,113.9 11.7,114 12,114.1 12.4,114.2 12.8,114.2 13.2,114.2 13.6,114.2 72.1,114.2 72.5,114.2 72.9,114.2 
	73.3,114.2 73.7,114.1 74.1,114 74.5,113.9 74.8,113.8 75.2,113.6 75.5,113.5 75.9,113.3 76.2,113.1 76.5,112.9 76.8,112.7 
	77.1,112.5 77.4,112.2 77.6,112 77.9,111.7 78.2,111.4 78.4,111.1 78.6,110.8 78.8,110.5 79,110.1 79.2,109.8 79.3,109.5 
	79.5,109.1 79.6,108.7 79.7,108.4 79.8,108 79.9,107.6 79.9,107.2 80,106.8 80,106.4 80,106 79.9,105.6 79.9,105.2 79.8,104.8 
	79.7,104.5 79.6,104.1 79.5,103.7 79.3,103.4 79.2,103 79,102.7 78.8,102.4 78.6,102.1 78.4,101.8 78.2,101.5 77.9,101.2 
	77.6,100.9 77.4,100.6 77.1,100.4 76.8,100.1 76.5,99.9 76.2,99.7 75.9,99.6 75.5,99.4 75.2,99.2 74.8,99.1 74.5,98.9 74.1,98.8 
	73.7,98.8 73.3,98.7 72.9,98.6 72.5,98.6 72.1,98.6 13.6,98.6 13.2,98.6 12.8,98.6 12.4,98.7 12,98.8 11.7,98.8 11.3,98.9 
	10.9,99.1 10.6,99.2 10.2,99.4 9.9,99.6 9.5,99.7 9.2,99.9 8.9,100.1 8.6,100.4 8.3,100.6 8.1,100.9 7.8,101.2 7.6,101.5 7.3,101.8 
	7.1,102.1 6.9,102.4 6.7,102.7 6.5,103 6.4,103.4 6.3,103.7 6.1,104.1 6,104.5 5.9,104.8 5.9,105.2 5.8,105.6 5.8,106 5.8,106.4 
	5.8,106.8 5.8,107.2 "/>
<polygon class="st0" points="41.6,86.8 41.7,87.1 41.7,87.4 41.8,87.6 41.9,87.9 42,88.2 42.1,88.5 42.2,88.7 42.3,89 42.5,89.3 
	42.6,89.5 42.8,89.7 43,90 43.2,90.2 43.4,90.4 43.6,90.6 43.8,90.8 44,91 44.3,91.2 44.5,91.3 44.8,91.4 45,91.6 45.3,91.7 
	45.6,91.8 45.9,91.9 46.2,92 46.4,92.1 46.7,92.1 47,92.2 47.3,92.2 47.6,92.2 91.2,92.2 91.7,92.2 92.2,92.1 92.7,92 93.1,91.9 
	93.6,91.7 94,91.5 94.4,91.2 94.8,91 95.2,90.7 95.5,90.3 95.8,90 96.2,89.6 96.4,89.2 96.6,88.8 96.8,88.4 97,87.9 97,87.8 
	97.1,87.6 97.1,87.3 97.2,86.9 97.2,86.5 97.2,86.1 97.2,43.8 97.2,43.5 97.2,43.2 97.2,42.9 97.1,42.6 97.1,42.3 97,42 96.9,41.8 
	96.8,41.5 96.7,41.2 96.5,41 96.4,40.7 96.2,40.4 96,40.2 95.9,40 95.7,39.8 95.5,39.5 95.3,39.3 95.1,39.2 94.8,39 94.6,38.8 
	94.3,38.6 94.1,38.5 93.8,38.4 93.5,38.2 93.3,38.1 93,38.1 92.7,38 92.4,37.9 92.1,37.8 91.8,37.8 91.5,37.8 91.2,37.8 90.9,37.8 
	90.6,37.8 90.3,37.8 90,37.9 89.7,38 89.4,38.1 89.1,38.1 88.9,38.2 88.6,38.4 88.3,38.5 88.1,38.6 87.8,38.8 87.6,39 87.4,39.2 
	87.2,39.3 86.9,39.5 86.7,39.8 86.5,40 86.4,40.2 86.2,40.4 86,40.7 85.9,41 85.8,41.2 85.6,41.5 85.5,41.8 85.4,42 85.3,42.3 
	85.3,42.6 85.2,42.9 85.2,43.2 85.2,43.5 85.2,43.8 85.2,80.1 47.6,80.1 47.3,80.1 47,80.1 46.7,80.2 46.4,80.2 46.2,80.3 
	45.9,80.3 45.6,80.5 45.3,80.6 45,80.7 44.8,80.8 44.5,81 44.3,81.1 44,81.3 43.8,81.5 43.6,81.7 43.4,81.9 43.2,82.1 43,82.3 
	42.8,82.5 42.6,82.8 42.5,83 42.3,83.3 42.2,83.5 42.1,83.8 42,84.1 41.9,84.3 41.8,84.6 41.7,84.9 41.7,85.2 41.6,85.5 41.6,85.8 
	41.6,86.1 41.6,86.5 "/>
<polygon class="st0" points="125.9,86.9 126,87.3 126,87.6 126,87.8 126.1,87.8 126.1,87.9 126.3,88.4 126.4,88.8 126.7,89.2 
	126.9,89.6 127.2,90 127.6,90.3 127.9,90.7 128.3,91 128.7,91.2 129.1,91.5 129.5,91.7 130,91.9 130.4,92 130.9,92.1 131.4,92.2 
	131.9,92.2 175.4,92.2 175.7,92.2 176,92.2 176.4,92.1 176.6,92.1 176.9,92 177.2,91.9 177.5,91.8 177.8,91.7 178.1,91.6 
	178.3,91.4 178.5,91.3 178.8,91.2 179.1,91 179.3,90.8 179.5,90.6 179.7,90.4 179.9,90.2 180.1,90 180.3,89.7 180.4,89.5 
	180.6,89.3 180.7,89 180.9,88.7 181,88.5 181.1,88.2 181.2,87.9 181.3,87.6 181.4,87.4 181.4,87.1 181.5,86.8 181.5,86.5 
	181.5,86.1 181.5,85.8 181.5,85.5 181.4,85.2 181.4,84.9 181.3,84.6 181.2,84.3 181.1,84.1 181,83.8 180.9,83.5 180.7,83.3 
	180.6,83 180.4,82.8 180.3,82.5 180.1,82.3 179.9,82.1 179.7,81.9 179.5,81.7 179.3,81.5 179.1,81.3 178.8,81.1 178.5,81 
	178.3,80.8 178.1,80.7 177.8,80.6 177.5,80.5 177.2,80.3 176.9,80.3 176.6,80.2 176.4,80.2 176,80.1 175.7,80.1 175.4,80.1 
	137.9,80.1 137.9,43.8 137.9,43.5 137.9,43.2 137.8,42.9 137.8,42.6 137.7,42.3 137.6,42 137.6,41.8 137.4,41.5 137.3,41.2 
	137.2,41 137,40.7 136.9,40.4 136.7,40.2 136.5,40 136.4,39.8 136.1,39.5 135.9,39.3 135.7,39.2 135.5,39 135.3,38.8 135,38.6 
	134.8,38.5 134.5,38.4 134.2,38.2 134,38.1 133.7,38.1 133.4,38 133.1,37.9 132.8,37.8 132.5,37.8 132.2,37.8 131.9,37.8 
	131.6,37.8 131.3,37.8 131,37.8 130.7,37.9 130.4,38 130.1,38.1 129.8,38.1 129.5,38.2 129.3,38.4 129,38.5 128.7,38.6 128.5,38.8 
	128.3,39 128,39.2 127.8,39.3 127.6,39.5 127.4,39.8 127.2,40 127,40.2 126.9,40.4 126.7,40.7 126.6,41 126.4,41.2 126.3,41.5 
	126.2,41.8 126.1,42 126,42.3 126,42.6 125.9,42.9 125.9,43.2 125.8,43.5 125.8,43.8 125.8,86.1 125.9,86.5 "/>
<polygon class="st0" points="85.2,169.2 85.2,169.6 85.2,169.9 85.2,170.2 85.3,170.5 85.3,170.7 85.4,171.1 85.5,171.3 85.6,171.6 
	85.8,171.9 85.9,172.1 86,172.4 86.2,172.6 86.4,172.9 86.5,173.1 86.7,173.3 86.9,173.5 87.2,173.7 87.4,173.9 87.6,174.1 
	87.8,174.3 88.1,174.4 88.3,174.6 88.6,174.7 88.9,174.8 89.1,174.9 89.4,175 89.7,175.1 90,175.2 90.3,175.3 90.6,175.3 
	90.9,175.3 91.2,175.3 91.5,175.3 91.8,175.3 92.1,175.3 92.4,175.2 92.7,175.1 93,175 93.3,174.9 93.5,174.8 93.8,174.7 
	94.1,174.6 94.3,174.4 94.6,174.3 94.8,174.1 95.1,173.9 95.3,173.7 95.5,173.5 95.7,173.3 95.9,173.1 96,172.9 96.2,172.6 
	96.4,172.4 96.5,172.1 96.7,171.9 96.8,171.6 96.9,171.3 97,171.1 97.1,170.7 97.1,170.5 97.2,170.2 97.2,169.9 97.2,169.6 
	97.3,169.2 97.3,127 97.2,126.6 97.2,126.2 97.1,125.8 97.1,125.5 97,125.3 97,125.3 97,125.2 96.8,124.7 96.6,124.3 96.4,123.9 
	96.2,123.5 95.8,123.1 95.5,122.7 95.2,122.4 94.8,122.1 94.4,121.8 94,121.6 93.6,121.4 93.1,121.2 92.7,121.1 92.2,121 
	91.7,120.9 91.2,120.9 47.6,120.9 47.3,120.9 47,120.9 46.7,121 46.4,121 46.1,121.1 45.9,121.2 45.6,121.2 45.3,121.4 45,121.5 
	44.8,121.6 44.5,121.8 44.3,121.9 44,122.1 43.8,122.3 43.6,122.5 43.4,122.7 43.2,122.9 43,123.1 42.8,123.3 42.6,123.6 
	42.5,123.8 42.3,124 42.2,124.3 42.1,124.6 42,124.8 41.9,125.2 41.8,125.5 41.7,125.7 41.7,126 41.6,126.3 41.6,126.6 41.6,126.9 
	41.6,127.3 41.6,127.6 41.7,127.9 41.7,128.2 41.8,128.4 41.9,128.7 42,129 42.1,129.3 42.2,129.6 42.3,129.8 42.5,130 42.6,130.3 
	42.8,130.6 43,130.8 43.2,131 43.4,131.2 43.6,131.4 43.8,131.6 44,131.8 44.3,132 44.5,132.1 44.8,132.3 45,132.4 45.3,132.5 
	45.6,132.6 45.9,132.7 46.1,132.8 46.4,132.9 46.7,132.9 47,133 47.3,133 47.6,133 85.2,133 "/>
<polygon class="st0" points="125.9,170.2 126,170.5 126,170.8 126.1,171.1 126.2,171.3 126.3,171.6 126.4,171.9 126.6,172.1 
	126.7,172.4 126.9,172.6 127,172.9 127.2,173.1 127.4,173.3 127.6,173.5 127.8,173.7 128,173.9 128.3,174.1 128.5,174.3 
	128.7,174.4 129,174.6 129.3,174.7 129.5,174.8 129.8,174.9 130.1,175 130.4,175.1 130.7,175.2 131,175.3 131.3,175.3 131.6,175.3 
	131.9,175.3 132.2,175.3 132.5,175.3 132.8,175.3 133.1,175.2 133.4,175.1 133.7,175 133.9,174.9 134.2,174.8 134.5,174.7 
	134.8,174.6 135,174.4 135.3,174.3 135.5,174.1 135.7,173.9 135.9,173.7 136.1,173.5 136.4,173.3 136.5,173.1 136.7,172.9 
	136.9,172.6 137,172.4 137.2,172.1 137.3,171.9 137.4,171.6 137.6,171.3 137.6,171.1 137.7,170.8 137.8,170.5 137.8,170.2 
	137.9,169.9 137.9,169.6 137.9,169.2 137.9,133 175.4,133 175.7,133 176,133 176.4,132.9 176.6,132.9 176.9,132.8 177.2,132.7 
	177.5,132.6 177.8,132.5 178.1,132.4 178.3,132.2 178.6,132.1 178.8,132 179.1,131.8 179.3,131.6 179.5,131.4 179.7,131.2 
	179.9,131 180.1,130.8 180.3,130.6 180.4,130.3 180.6,130 180.7,129.8 180.9,129.6 181,129.3 181.1,129 181.2,128.7 181.3,128.4 
	181.4,128.2 181.4,127.9 181.4,127.6 181.5,127.3 181.5,126.9 181.5,126.6 181.4,126.3 181.4,126 181.4,125.7 181.3,125.5 
	181.2,125.2 181.1,124.9 181,124.6 180.9,124.3 180.7,124 180.6,123.8 180.4,123.6 180.3,123.3 180.1,123.1 179.9,122.9 
	179.7,122.7 179.5,122.5 179.3,122.3 179.1,122.1 178.8,121.9 178.6,121.8 178.3,121.6 178.1,121.5 177.8,121.4 177.5,121.2 
	177.2,121.2 176.9,121.1 176.6,121 176.4,121 176,120.9 175.7,120.9 175.4,120.9 131.9,120.9 131.4,120.9 130.9,121 130.4,121.1 
	130,121.2 129.5,121.4 129.1,121.6 128.7,121.8 128.3,122.1 127.9,122.4 127.6,122.7 127.2,123.1 126.9,123.5 126.7,123.9 
	126.4,124.3 126.3,124.7 126.1,125.2 126.1,125.3 126,125.3 126,125.5 126,125.8 125.9,126.2 125.9,126.6 125.8,127 125.8,169.2 
	125.8,169.6 125.9,169.9 "/>
<path class="st0" d="M312.1,158.8v0.3v0.3v0.3v0.3v0.3v0.3l-0.1,0.3l-0.1,0.3l-0.2,0.3l-0.1,0.2l-0.2,0.2l-0.2,0.2l-0.2,0.2
	l-0.2,0.1l-0.3,0.1l-0.2,0.1l-0.3,0.1h-0.3h-0.3h-0.3h-0.3h-3v-8.8h2.1h0.5h0.4h0.4l0.4,0.2l0.4,0.1l0.4,0.2l0.3,0.2l0.3,0.3
	l0.2,0.3l0.3,0.4l0.2,0.4l0.1,0.4l0.1,0.4v0.4v0.5v0.9L312.1,158.8z M315.8,157.1v-0.4v-0.4l-0.1-0.4l-0.1-0.3l-0.1-0.3l-0.2-0.3
	l-0.2-0.3l-0.2-0.3l-0.3-0.2l-0.3-0.3l-0.3-0.2l-0.3-0.2l-0.3-0.2l-0.5-0.2l-0.5-0.2l-0.5-0.1l-0.5-0.2l-0.6-0.1h-0.6h-0.6H302v0.3
	v0.3v0.3v20.3v0.3v0.2v0.3h3.8V174v-9.2h3h0.6h0.6l0.6-0.1l0.5-0.1l0.6-0.1l0.5-0.2l0.5-0.2l0.4-0.2l0.4-0.2l0.3-0.3l0.4-0.3
	l0.3-0.3l0.3-0.3l0.2-0.3l0.2-0.3l0.2-0.4l0.2-0.4l0.1-0.4v-0.4l0.1-0.4v-0.5V159v-1.4L315.8,157.1z"/>
<path class="st0" d="M340.4,164.4v1v0.5v0.4v0.4l-0.1,0.4l-0.1,0.4v0.4l-0.1,0.4l-0.1,0.4l-0.1,0.4l-0.2,0.4l-0.2,0.3l-0.2,0.3
	l-0.2,0.3l-0.3,0.3l-0.2,0.3l-0.3,0.3l-0.3,0.3l-0.3,0.2l-0.3,0.2l-0.3,0.2l-0.4,0.2l-0.3,0.1l-0.4,0.1h-0.4h-0.4h-0.4h-0.4h-0.9
	h-0.4h-0.4h-0.4h-0.4h-0.4l-0.3-0.1l-0.3-0.1l-0.3-0.2l-0.3-0.2l-0.3-0.2l-0.2-0.2l-0.3-0.2l-0.3-0.3l-0.2-0.3l-0.2-0.3l-0.2-0.3
	l-0.2-0.3l-0.2-0.4L328,169l-0.1-0.4l-0.1-0.4l-0.1-0.4v-0.4l-0.1-0.5l-0.1-0.4V166v-0.5v-0.6V162v-1v-0.4v-0.5v-0.4l-0.3-0.5v-0.4
	l0.1-0.4l0.1-0.4l0.1-0.4l0.1-0.3l0.2-0.4l0.1-0.3l0.2-0.3l0.2-0.3l0.3-0.3l0.2-0.3l0.2-0.3l0.3-0.2l0.3-0.2l0.3-0.2l0.3-0.1
	l0.3-0.2l0.3-0.1h0.4h0.4h0.4h0.8h0.4h0.4h0.8h0.4h0.4h0.4l0.4,0.1l0.3,0.1l0.3,0.1l0.3,0.2l0.3,0.2l0.3,0.2l0.3,0.2l0.2,0.3
	l0.2,0.3l0.2,0.3l0.2,0.3l0.1,0.3l0.2,0.3l0.2,0.3l0.1,0.4l0.2,0.4l0.1,0.4v0.5v0.5l0.1,0.4v0.5v0.5v0.6v0.6v0.6v0.6L340.4,164.4z
	 M344.2,161.8v-0.6v-0.6V160l-0.2-0.6l-0.1-0.6l-0.2-0.5l-0.2-0.5l-0.3-0.5l-0.2-0.5l-0.3-0.5l-0.3-0.4l-0.3-0.4l-0.3-0.4l-0.4-0.4
	l-0.4-0.3l-0.4-0.3l-0.4-0.3l-0.4-0.3l-0.4-0.3L339,153l-0.4-0.2l-0.5-0.2l-0.5-0.1l-0.5-0.1l-0.5-0.1h-0.5h-0.6h-0.6h-0.6h-0.6
	h-0.9H332h-0.8l-0.7,0.1l-0.7,0.2l-0.7,0.2l-0.6,0.2l-0.6,0.3l-0.6,0.4l-0.5,0.3l-0.5,0.4l-0.5,0.4l-0.4,0.5l-0.4,0.5l-0.4,0.6
	l-0.3,0.6l-0.3,0.6l-0.3,0.7l-0.2,0.7l-0.2,0.7l-0.2,0.8l-0.4,0.7v0.8v0.9v0.6v0.7v0.6v0.6v0.6l0.1,0.6l0.1,0.6l0.2,0.5l0.2,0.5
	l0.2,0.5l0.2,0.5l0.3,0.5l0.3,0.4l0.3,0.4l0.3,0.4l0.4,0.4l0.3,0.3l0.3,0.3l0.4,0.3l0.4,0.3l0.4,0.3l0.4,0.2l0.4,0.2l0.5,0.2
	l0.5,0.2l0.6,0.2l0.5,0.1h0.6h0.6h0.7h2.5h0.6h0.6h0.6l0.5-0.1l0.5-0.1l0.5-0.2l0.5-0.1l0.4-0.2l0.5-0.3l0.4-0.2l0.4-0.3l0.4-0.3
	l0.4-0.3l0.4-0.3l0.4-0.4l0.3-0.4l0.3-0.4l0.3-0.4l0.3-0.5l0.2-0.4l0.3-0.5l0.2-0.5l0.2-0.5l0.1-0.6l0.1-0.6l0.1-0.6v-0.6v-0.6v-0.6
	v-1.4L344.2,161.8z"/>
<path class="st0" d="M360.1,162.5l-0.3,0.1h-0.3h-0.3h-0.4h-2.1v-8.7h2h0.5h0.4h0.4l0.4,0.1l0.3,0.2l0.3,0.2l0.3,0.2l0.4,0.4
	l0.3,0.4l0.1,0.2l0.1,0.2v0.2l0.1,0.2l0.1,0.4l0.1,0.5v0.5v1.1v0.3v0.3v0.2v0.3v0.2v0.2l-0.1,0.2l-0.1,0.2l-0.1,0.3l-0.1,0.1
	l-0.2,0.2l-0.2,0.1l-0.2,0.2l-0.3,0.1l-0.2,0.2l-0.3,0.1L360.1,162.5z M368.2,173.8l-0.2-0.3l-0.3-0.3l-7.1-9.4l0.7-0.2l0.7-0.1
	l0.6-0.1l0.5-0.2l0.4-0.1l0.4-0.2l0.4-0.2l0.3-0.2l0.3-0.2l0.3-0.3l0.3-0.3l0.3-0.3l0.2-0.3l0.2-0.3l0.1-0.4l0.1-0.4v-0.4v-0.4v-1.7
	V157l-0.1-0.4v-0.4l-0.1-0.3l-0.1-0.3l-0.2-0.4l-0.2-0.3l-0.2-0.3l-0.2-0.3l-0.2-0.3l-0.3-0.2l-0.3-0.3l-0.3-0.2l-0.3-0.2l-0.4-0.2
	l-0.5-0.2l-0.4-0.1l-0.5-0.1l-0.5-0.1h-0.5h-0.6H353v0.3v0.3v20.9v0.2v0.2h3.9V174v-0.2V164l6.6,9.2l0.1,0.3v0.2l0.1,0.2v0.3h4.8
	l-0.2-0.2L368.2,173.8z"/>
<polygon class="st0" points="372.7,154.3 373.1,154.2 373.4,154.2 373.8,154.1 374.1,154.1 378.8,154.1 378.8,173.1 378.8,173.4 
	378.8,173.6 378.7,173.9 378.7,174.1 382.6,174.1 382.6,173.9 382.5,173.6 382.5,173.4 382.5,173.1 382.5,154.1 387.2,154.1 
	387.5,154.1 387.8,154.2 388.2,154.2 388.5,154.3 388.5,152.3 372.7,152.3 "/>
<path class="st0" d="M411.2,163.3v1.1v1v0.5v0.5v0.4v0.4v0.4l-0.1,0.4l-0.1,0.4l-0.1,0.4l-0.1,0.4l-0.2,0.4l-0.2,0.3l-0.2,0.3
	l-0.2,0.3l-0.2,0.3l-0.3,0.3l-0.3,0.3l-0.3,0.2l-0.3,0.2l-0.7,0.3l-0.3,0.2l-0.3,0.2l-0.4,0.1l-0.4,0.1h-0.4h-0.4h-0.4h-0.4h-0.8
	h-0.4h-0.4h-0.4h-0.4h-0.3l-0.4-0.1l-0.3-0.1l-0.3-0.2l-0.3-0.2l-0.3-0.2l-0.3-0.2l-0.3-0.2l-0.3-0.3l-0.2-0.3l-0.2-0.3l-0.2-0.3
	l-0.2-0.3l-0.2-0.4l-0.1-0.4l-0.2-0.4l-0.2-0.4V168l-0.1-0.5L398,167v-0.4V166v-0.5V165v-0.5v-0.6v-1.6v-1v-0.4v-0.5l0.1-0.4v-0.4
	l0.1-0.4l0.1-0.4l0.1-0.4l0.1-0.4l0.1-0.3l0.2-0.4l0.2-0.3l0.1-0.3l0.3-0.3l0.2-0.3l0.2-0.3l0.3-0.3l0.3-0.2l0.3-0.2l0.3-0.2
	l0.3-0.1l0.3-0.2l0.4-0.1h0.4h0.4h0.4h0.9h0.4h0.4h0.7h0.4h0.4h0.3l0.3,0.1l0.3,0.1l0.3,0.1l0.3,0.2l0.3,0.2l0.2,0.2l0.3,0.2
	l0.3,0.3l0.2,0.3l0.2,0.3l0.2,0.3l0.2,0.3l0.1,0.3l0.2,0.3l0.1,0.4l0.1,0.4l0.1,0.4l0.1,0.5l0.1,0.5v0.4v0.5v0.5v0.6v1.7
	L411.2,163.3z M415,161.2v-0.6l-0.1-0.6l-0.1-0.6l-0.2-0.6l-0.2-0.5l-0.2-0.5l-0.2-0.5l-0.3-0.4l-0.3-0.5l-0.3-0.4l-0.3-0.4
	l-0.4-0.4l-0.4-0.4l-0.4-0.3l-0.3-0.3l-0.4-0.3l-0.4-0.3l-0.4-0.3l-0.4-0.2l-0.4-0.2l-0.5-0.2l-0.5-0.1l-0.5-0.1l-0.5-0.1h-0.5h-0.6
	h-0.6H405h-0.6h-0.8h-0.9l-0.7,0.1l-0.8,0.1l-0.7,0.2l-0.7,0.2l-0.7,0.2l-0.6,0.3l-0.6,0.4l-0.5,0.3l-0.5,0.4l-0.4,0.4l-0.4,0.5
	l-0.4,0.5l-0.4,0.6l-0.3,0.5l-0.3,0.6l-0.3,0.7l-0.2,0.7l-0.2,0.7l-0.1,0.8v0.8v0.8v2.1v0.6v0.6l0.1,0.6l0.1,0.6l0.1,0.6l0.1,0.5
	l0.2,0.5l0.2,0.5l0.3,0.5l0.2,0.5l0.3,0.4l0.3,0.4l0.3,0.4l0.3,0.4l0.3,0.3l0.4,0.3l0.4,0.3l0.4,0.3l0.4,0.3l0.4,0.2l0.5,0.2
	l0.5,0.2l0.5,0.2l0.5,0.2l0.6,0.1h0.6h0.6h0.6h0.6h1.3h0.6h0.6h0.6h0.5l0.4-0.1l0.5-0.1l0.5-0.2l0.4-0.2l0.5-0.2l0.4-0.3l0.4-0.2
	l0.4-0.3l0.4-0.3l0.4-0.3l0.4-0.3l0.3-0.4l0.3-0.4l0.3-0.4l0.3-0.4l0.3-0.5l0.3-0.4l0.2-0.5l0.2-0.5l0.2-0.5l0.1-0.6l0.1-0.6
	l0.1-0.6v-0.6v-0.6v-2.8L415,161.2z"/>
<path class="st0" d="M444.1,165.6l3.5-9.8l3.5,9.8H444.1z M457.9,173.6l-0.1-0.2v-0.2l-7.5-20.1v-0.4v-0.3h-3.2v0.4v0.1v0.2
	l-7.4,20.1v0.2l-0.1,0.2l-0.1,0.2l-0.1,0.2h2.1v-0.5v-0.2v-0.2l2.1-5.9h8.1l2.1,5.9v0.2v0.2v0.2v0.2h4.3L457.9,173.6L457.9,173.6z"
	/>
<polygon class="st0" points="476.2,172.3 475.9,172.4 475.5,172.4 469.3,172.4 469.3,153.4 469.3,153.1 469.4,152.8 469.4,152.6 
	469.5,152.3 465.5,152.3 465.6,152.6 465.7,152.8 465.7,153.1 465.7,153.4 465.7,173.1 465.7,173.4 465.7,173.6 465.6,173.9 
	465.5,174.1 476.6,174.1 476.6,172.3 476.4,172.3 "/>
<polygon class="st0" points="484.3,152.5 484.3,152.8 484.4,153.1 484.4,153.4 484.4,173.1 484.4,173.4 484.4,173.6 484.3,173.9 
	484.3,174.1 495.6,174.1 495.6,172.2 495.2,172.3 494.9,172.3 494.6,172.4 494.3,172.4 488,172.4 488,163.8 494.4,163.8 
	494.8,163.8 495.1,163.8 495.3,163.9 495.6,163.9 495.6,162.1 495.3,162.2 495,162.2 494.7,162.2 494.4,162.3 488,162.3 488,153.9 
	494.5,153.9 494.8,154 495.1,154 495.3,154 495.6,154.1 495.6,152.3 484.2,152.3 "/>
<polygon class="st0" points="521.5,172.3 521.4,172 521.4,171.6 521.4,163.2 521.4,163 521.4,162.7 521.5,162.5 521.5,162.2 
	517.7,162.2 517.7,162.4 517.8,162.7 517.8,162.9 517.8,163.2 517.8,171.8 517.4,172 517,172.2 516.6,172.3 516.2,172.5 
	515.8,172.6 515.3,172.7 514.9,172.7 514.4,172.7 514.1,172.7 513.7,172.7 513.4,172.6 513,172.6 512.7,172.5 512.4,172.4 
	512,172.3 511.7,172.2 511.4,172 511.2,171.9 510.9,171.7 510.6,171.5 510.3,171.3 510.1,171.1 509.8,170.9 509.6,170.7 
	509.3,170.3 509.1,170 508.8,169.7 508.6,169.3 508.4,168.9 508.2,168.5 508.1,168.1 507.9,167.6 507.8,167.2 507.7,166.7 
	507.6,166.2 507.5,165.6 507.5,165.1 507.4,164.5 507.4,163.9 507.4,163.3 507.4,162.8 507.4,162.2 507.5,161.6 507.5,161.1 
	507.6,160.5 507.7,160 507.8,159.5 507.9,159 508.1,158.6 508.2,158.2 508.4,157.8 508.6,157.5 508.8,157.1 509.1,156.7 
	509.3,156.4 509.6,156 509.9,155.8 510.1,155.5 510.4,155.2 510.7,155.1 511,154.8 511.3,154.7 511.6,154.5 511.9,154.4 
	512.2,154.2 512.6,154.1 512.9,154 513.3,154 513.6,153.9 514,153.9 514.4,153.8 514.8,153.8 515.1,153.8 515.5,153.9 515.9,153.9 
	516.3,154 516.6,154 517,154.1 517.4,154.2 517.7,154.3 518.1,154.5 518.5,154.6 518.8,154.8 519.2,155 519.6,155.2 520,155.4 
	520.4,155.6 520.7,155.9 520.7,153.2 519.9,152.9 519.1,152.6 518.4,152.5 517.6,152.3 516.8,152.1 516.1,152.1 515.3,152 
	514.7,152 514,152 513.5,152.1 512.9,152.1 512.4,152.1 511.9,152.2 511.3,152.4 510.8,152.5 510.3,152.6 509.9,152.8 509.4,153 
	509,153.2 508.6,153.4 508.2,153.6 507.7,153.9 507.4,154.2 507,154.5 506.6,154.9 506.2,155.3 505.8,155.8 505.5,156.2 
	505.2,156.7 504.9,157.2 504.6,157.7 504.4,158.2 504.2,158.8 504,159.4 503.8,160 503.7,160.6 503.6,161.2 503.5,161.9 
	503.5,162.6 503.5,163.3 503.5,164.1 503.5,164.8 503.6,165.6 503.7,166.4 503.9,167 504.1,167.7 504.3,168.3 504.6,169 
	504.8,169.3 504.9,169.7 505.1,170 505.3,170.3 505.5,170.6 505.7,170.9 506,171.2 506.2,171.4 506.5,171.7 506.7,171.9 507,172.2 
	507.3,172.4 507.6,172.7 507.9,172.9 508.2,173.1 508.5,173.2 509.1,173.5 509.7,173.8 510.3,174 511,174.1 511.7,174.3 
	512.4,174.4 513.2,174.4 514,174.5 515,174.4 515.8,174.4 516.6,174.3 517.3,174.2 517.7,174.1 518.1,174 518.6,173.9 519.1,173.7 
	519.6,173.6 520.2,173.4 520.9,173.2 521.6,173 521.5,172.7 "/>
<path class="st0" d="M537.8,162.5l-0.3,0.1h-0.3h-0.3h-0.4h-2.1v-8.7h2h0.4h0.4h0.4l0.4,0.1l0.3,0.2l0.3,0.2l0.3,0.2l0.3,0.4
	l0.4,0.4l0.1,0.2l0.1,0.2l0.1,0.2v0.2l0.2,0.4l0.1,0.5v0.5v1.6v0.3v0.2v0.3v0.2v0.2l-0.1,0.2l-0.1,0.2l-0.1,0.3l-0.2,0.1l-0.2,0.2
	l-0.1,0.1l-0.2,0.2l-0.2,0.1l-0.3,0.2l-0.3,0.1L537.8,162.5z M545.9,173.8l-0.2-0.3l-0.2-0.3l-7.1-9.4l0.7-0.2l0.7-0.2l0.6-0.1
	l0.5-0.2l0.4-0.1l0.4-0.2l0.4-0.2l0.3-0.2l0.3-0.2l0.3-0.3l0.3-0.3l0.2-0.3l0.2-0.3l0.2-0.3l0.2-0.4l0.1-0.4v-0.4v-0.4v-1.7V157
	v-0.4l-0.1-0.4l-0.1-0.3l-0.1-0.3l-0.2-0.4l-0.2-0.3l-0.2-0.3l-0.2-0.3l-0.3-0.3l-0.3-0.2l-0.3-0.3l-0.3-0.2l-0.4-0.2l-0.4-0.2
	l-0.5-0.2l-0.5-0.1l-0.5-0.1l-0.5-0.1h-0.5H538h-7.2v0.3v0.3v20.9v0.2v0.2h3.9V174v-0.2v-0.3v-9.4l6.6,9.2l0.1,0.3l0.1,0.2l0.1,0.2
	v0.3h4.8l-0.2-0.2L545.9,173.8z"/>
<polygon class="st0" points="553.4,152.5 553.5,152.8 553.5,153.1 553.5,153.4 553.5,173.1 553.5,173.4 553.5,173.6 553.4,173.9 
	553.4,174.1 564.7,174.1 564.7,172.2 564.3,172.3 564,172.3 563.8,172.4 563.5,172.4 557.1,172.4 557.1,163.8 563.5,163.8 
	563.9,163.8 564.2,163.8 564.5,163.9 564.7,163.9 564.7,162.1 564.4,162.2 564.1,162.2 563.8,162.2 563.5,162.3 557.1,162.3 
	557.1,153.9 563.7,153.9 563.9,154 564.2,154 564.4,154 564.7,154.1 564.7,152.3 553.4,152.3 "/>
<polygon class="st0" points="278.5,75.5 278.4,76 278.4,76.4 278.3,76.8 278.2,77.2 278,77.6 277.9,77.9 277.7,78.3 277.6,78.6 
	277.3,79 277.1,79.3 276.9,79.6 276.6,80 276.3,80.2 276,80.5 275.7,80.8 275.4,81 275.1,81.3 274.7,81.5 274.4,81.7 274,81.8 
	273.6,82 273.2,82.2 272.8,82.3 272.4,82.4 271.9,82.5 271.5,82.6 271,82.7 270.6,82.7 270,82.8 269.6,82.8 268.8,82.8 268.1,82.7 
	267.4,82.6 266.7,82.5 266.1,82.4 265.4,82.2 264.8,82 264.1,81.7 263.5,81.4 262.9,81 262.2,80.6 261.5,80.1 260.8,79.6 260,79 
	259.2,78.3 258.4,77.6 256.8,83.3 257.7,83.8 258.6,84.2 259.4,84.6 260.2,84.9 261,85.3 261.8,85.6 262.6,85.8 263.4,86.1 
	264.1,86.3 264.9,86.4 265.7,86.6 266.5,86.7 267.3,86.8 268.1,86.8 269,86.9 269.9,86.9 270.6,86.9 271.4,86.8 272.1,86.8 
	272.9,86.7 273.6,86.6 274.3,86.4 275,86.3 275.7,86.2 276.3,85.9 277,85.7 277.6,85.5 278.2,85.2 278.8,84.9 279.3,84.6 
	279.8,84.3 280.3,84 280.9,83.5 281.6,82.9 282.1,82.3 282.7,81.7 283.2,81 283.7,80.4 284.1,79.7 284.5,78.9 284.8,78.2 
	285.1,77.4 285.4,76.6 285.6,75.8 285.8,75 285.9,74.2 286,73.3 286,72.5 286,71.9 286,71.4 285.9,70.8 285.9,70.3 285.8,69.8 
	285.7,69.3 285.5,68.7 285.4,68.2 285.2,67.8 285,67.3 284.8,66.8 284.6,66.3 284.3,65.9 284,65.4 283.7,65 283.4,64.5 283.1,64.1 
	282.7,63.7 282.4,63.3 282,63 281.6,62.6 281.1,62.2 280.6,61.8 280.1,61.4 279.5,61.1 278.9,60.7 278.3,60.3 277.6,59.9 
	276.8,59.6 276,59.2 275.2,58.8 274.3,58.4 272.9,57.7 271.6,57.1 270.5,56.4 269.5,56 268.5,55.4 267.8,54.9 267.4,54.6 
	267.1,54.3 266.8,54.1 266.5,53.8 266.2,53.6 266,53.3 265.7,53 265.6,52.8 265.4,52.5 265.2,52.2 265.1,52 264.9,51.6 264.9,51.4 
	264.8,51.1 264.7,50.8 264.6,50.4 264.6,49.7 264.6,49.1 264.6,48.7 264.6,48.3 264.6,48 264.7,47.6 264.8,47.3 264.9,46.9 
	265,46.6 265.2,46.3 265.3,46 265.5,45.7 265.6,45.4 265.8,45.1 266.1,44.8 266.3,44.6 266.5,44.3 266.8,44.1 267.1,43.8 
	267.3,43.6 267.6,43.4 267.9,43.2 268.2,43 268.5,42.9 268.9,42.8 269.2,42.6 269.6,42.5 270,42.4 270.3,42.3 270.7,42.2 
	271.1,42.2 271.5,42.1 271.9,42.1 272.3,42.1 272.9,42.1 273.5,42.1 274.1,42.2 274.7,42.3 275.3,42.4 275.9,42.5 276.4,42.8 
	277,42.9 277.6,43.2 278.2,43.5 278.9,43.8 279.5,44.2 280.2,44.5 280.8,44.9 281.5,45.4 282.2,45.9 283.7,40.9 283,40.5 
	282.2,40.2 281.5,40 280.8,39.8 280.1,39.5 279.5,39.3 278.8,39.1 278.1,38.9 277.5,38.8 276.8,38.6 276.2,38.6 275.5,38.5 
	274.8,38.4 274.2,38.4 273.5,38.3 272.7,38.3 271.9,38.3 271,38.4 270.2,38.5 269.4,38.6 268.6,38.7 267.9,38.9 267.1,39.1 
	266.4,39.3 265.7,39.5 265,39.8 264.4,40.1 263.7,40.4 263.2,40.8 262.6,41.1 262,41.6 261.5,42 261,42.4 260.5,42.9 260.1,43.3 
	259.7,43.8 259.3,44.4 258.9,44.9 258.6,45.5 258.3,46.1 258,46.6 257.8,47.3 257.6,47.9 257.4,48.6 257.3,49.3 257.2,50 
	257.1,50.6 257.1,51.3 257.1,51.9 257.2,52.4 257.2,52.9 257.3,53.4 257.4,53.9 257.5,54.4 257.6,54.8 257.8,55.3 257.9,55.7 
	258.1,56.2 258.3,56.6 258.6,57 258.8,57.4 259.1,57.8 259.4,58.3 259.7,58.7 260,59 260.4,59.4 260.8,59.8 261.2,60.2 261.7,60.6 
	262.1,61 262.6,61.3 263.2,61.7 263.7,62 264.3,62.4 264.9,62.8 265.5,63.1 266.9,63.8 268.3,64.5 269.7,65.2 270.8,65.8 
	271.9,66.3 272.8,66.8 273.6,67.2 274.2,67.5 274.7,67.9 275.2,68.2 275.6,68.5 276,68.8 276.3,69.1 276.7,69.5 277,69.9 
	277.2,70.2 277.5,70.6 277.7,71 277.9,71.4 278.1,71.9 278.2,72.3 278.4,72.7 278.4,73.2 278.5,73.7 278.5,74.2 278.6,74.6 
	278.5,75.1 "/>
<path class="st0" d="M303.6,46.7l7.6,21.3h-15L303.6,46.7z M285.7,86.2h4.5v-0.6v-0.5v-0.4l0.1-0.5l4.6-12.8h17.5l4.5,12.8l0.2,0.5
	v0.5v0.5v0.5h9.2l-0.4-0.6l-0.3-0.5l-0.3-0.4l-0.2-0.5l-15.9-43.6l-0.1-0.4l-0.1-0.4v-0.4V39h-6.8v0.4v0.4l-0.1,0.4l-0.1,0.5
	l-15.5,43.4l-0.2,0.5l-0.2,0.4l-0.3,0.5L285.7,86.2z"/>
<polygon class="st0" points="366.9,85.7 366.8,85.3 366.8,84.7 366.8,84 366.8,41.3 366.8,40.6 366.8,40.1 366.9,39.6 367,39 
	362.9,39 363,39.6 363.1,40.2 363.2,40.7 363.2,41.3 363.2,76.7 337.5,40.6 337.1,40.2 336.8,39.8 336.8,39.6 336.7,39.4 
	336.7,39.3 336.6,39 329.1,39 329.3,39.7 329.3,40.2 329.4,40.7 329.4,41.3 329.4,83.9 329.4,84.5 329.3,85 329.3,85.5 329.1,86.2 
	333.3,86.2 333.1,85.6 333.1,85.1 333,84.5 333,83.9 333,47.7 359.2,84.4 359.4,84.7 359.6,85 359.8,85.3 360,85.5 360.3,86.2 
	367.1,86.2 "/>
<polygon class="st0" points="399.7,43 400.4,43 401,43.1 401.7,43.2 402.6,43.3 402.6,39 368.4,39 368.4,43.3 369.3,43.2 370,43.1 
	370.7,43 371.4,43 381.6,43 381.6,83.9 381.6,84.5 381.6,85.1 381.5,85.6 381.4,86.2 389.8,86.2 389.7,85.6 389.6,85.1 389.5,84.5 
	389.5,83.9 389.5,43 "/>
<path class="st0" d="M414.1,46.7l7.7,21.3h-15L414.1,46.7z M397,84.7l-0.2,0.4l-0.3,0.5l-0.3,0.5h4.4v-0.6V85v-0.4l0.1-0.5l4.6-12.8
	H423l4.5,12.8l0.1,0.5l0.1,0.5v0.5v0.5h9.2l-0.4-0.6l-0.3-0.5l-0.2-0.4l-0.2-0.5l-15.9-43.6l-0.1-0.4v-0.4v-0.4V39H413v0.4v0.4v0.4
	l-0.2,0.5l-15.7,43.4L397,84.7z"/>
<polygon class="st0" points="479.2,86.8 480.5,86.9 481.9,86.9 482.8,86.9 483.6,86.9 484.4,86.8 485.2,86.7 486,86.6 486.7,86.6 
	487.4,86.4 488.1,86.3 488.9,86.1 489.6,85.9 490.3,85.6 491,85.4 491.8,85.1 492.5,84.8 493.3,84.5 494.2,84 494.2,77.8 
	493.4,78.5 492.7,79.1 492.1,79.7 491.4,80.2 490.7,80.6 490.1,81 489.4,81.4 488.8,81.8 488.1,82 487.4,82.2 486.8,82.4 
	486.1,82.6 485.4,82.7 484.7,82.8 484,82.8 483.2,82.9 482.2,82.8 481.4,82.7 480.5,82.6 479.7,82.5 478.9,82.3 478.1,82 
	477.4,81.8 476.6,81.4 475.9,81 475.2,80.6 474.6,80.2 473.9,79.6 473.3,79.1 472.7,78.5 472.2,77.9 471.6,77.3 471.1,76.6 
	470.7,75.8 470.2,75.1 469.8,74.3 469.4,73.5 469.1,72.7 468.7,71.8 468.4,70.8 468.2,69.9 467.9,68.9 467.8,67.9 467.6,66.9 
	467.5,65.8 467.4,64.7 467.4,63.6 467.3,62.4 467.4,61.2 467.4,60.1 467.5,59 467.6,58 467.7,56.9 467.9,56 468.2,54.9 468.4,54 
	468.7,53.1 469,52.2 469.3,51.4 469.7,50.5 470.1,49.7 470.6,49 471,48.3 471.5,47.6 472,47 472.6,46.4 473.1,45.8 473.7,45.3 
	474.4,44.8 475,44.4 475.7,44 476.4,43.6 477.1,43.3 477.9,43 478.7,42.8 479.5,42.6 480.3,42.5 481.1,42.3 482,42.2 482.9,42.2 
	483.7,42.2 484.5,42.3 485.2,42.3 485.9,42.5 486.6,42.6 487.2,42.8 487.9,43 488.6,43.2 489.2,43.5 489.9,43.8 490.5,44.2 
	491.3,44.6 491.9,45.1 492.7,45.6 493.4,46.2 494.2,46.8 494.2,40.5 493.5,40.2 492.8,39.9 492.1,39.7 491.4,39.5 490.8,39.3 
	490.1,39.1 489.4,39 488.8,38.8 488.1,38.7 487.4,38.6 486.7,38.5 486,38.5 485.3,38.4 484.6,38.4 483.8,38.3 483,38.3 481.5,38.4 
	480.2,38.5 478.9,38.6 477.6,38.8 476.3,39 475,39.2 473.9,39.6 472.7,39.9 471.6,40.3 470.6,40.8 469.6,41.3 468.6,41.9 
	467.7,42.5 466.8,43.1 466,43.8 465.2,44.6 464.4,45.3 463.7,46.2 463.1,47.1 462.5,48 461.9,48.9 461.4,50 460.9,51 460.5,52.1 
	460.1,53.2 459.8,54.4 459.5,55.6 459.3,56.9 459.2,58.2 459,59.5 458.9,60.9 458.9,62.3 458.9,63.7 459,65.2 459.1,66.6 
	459.3,67.9 459.5,69.2 459.8,70.4 460.1,71.7 460.4,72.8 460.8,73.9 461.3,75 461.7,76.1 462.3,77.1 462.8,78 463.5,78.9 
	464.1,79.8 464.8,80.6 465.6,81.3 466.4,82 467.2,82.6 468.1,83.3 469,83.9 470,84.4 471,84.9 472,85.3 473.1,85.7 474.3,86 
	475.4,86.3 476.6,86.5 477.9,86.6 "/>
<path class="st0" d="M505.8,68l7.4-21.3l7.6,21.3H505.8z M526.7,84.2l0.2,0.6l0.1,0.5v0.5v0.5h9.2l-0.4-0.6l-0.3-0.5l-0.2-0.4
	l-0.2-0.5l-15.9-43.6l-0.1-0.4l-0.1-0.4v-0.4v-0.4h-7v0.4V40v0.4l-0.2,0.5l-15.4,43.4l-0.2,0.5l-0.2,0.4l-0.3,0.5l-0.3,0.5h4.5v-1.1
	l0.1-0.4l0.1-0.5l4.6-12.8h17.5L526.7,84.2z"/>
<polygon class="st0" points="560.6,40 559.9,39.8 559.2,39.5 558.6,39.3 557.9,39.1 557.3,38.9 556.6,38.8 556,38.6 555.3,38.6 
	554.7,38.5 554,38.4 553.3,38.4 552.6,38.3 551.9,38.3 551,38.3 550.1,38.4 549.3,38.5 548.5,38.6 547.7,38.7 547,38.9 546.3,39.1 
	545.5,39.3 544.8,39.5 544.1,39.8 543.5,40.1 542.9,40.4 542.2,40.8 541.7,41.1 541.1,41.6 540.6,42 540.1,42.4 539.6,42.9 
	539.2,43.3 538.8,43.8 538.4,44.4 538.1,44.9 537.7,45.5 537.4,46.1 537.1,46.6 536.9,47.3 536.7,47.9 536.5,48.6 536.4,49.3 
	536.3,50 536.3,50.6 536.3,51.3 536.3,51.9 536.3,52.4 536.3,52.9 536.4,53.4 536.5,53.9 536.6,54.4 536.7,54.8 536.9,55.3 
	537,55.7 537.2,56.2 537.4,56.6 537.7,57 537.9,57.4 538.2,57.8 538.5,58.3 538.8,58.7 539.2,59 539.5,59.4 539.9,59.8 540.4,60.2 
	540.8,60.6 541.3,61 541.8,61.3 542.3,61.7 542.8,62 543.4,62.4 544,62.8 544.6,63.1 546,63.8 547.4,64.5 548.8,65.2 550,65.8 
	551,66.3 551.9,66.8 552.7,67.2 553.3,67.5 553.9,67.9 554.3,68.2 554.7,68.5 555.1,68.8 555.4,69.1 555.8,69.5 556.1,69.9 
	556.3,70.2 556.6,70.6 556.8,71 557,71.4 557.2,71.9 557.4,72.3 557.4,72.7 557.5,73.2 557.6,73.7 557.7,74.2 557.7,74.6 
	557.7,75.1 557.6,75.5 557.5,76 557.5,76.4 557.4,76.8 557.3,77.2 557.1,77.6 557,77.9 556.8,78.3 556.7,78.6 556.4,79 556.2,79.3 
	556,79.6 555.7,80 555.4,80.2 555.1,80.5 554.8,80.8 554.5,81 554.2,81.3 553.9,81.5 553.5,81.7 553.1,81.8 552.7,82 552.3,82.2 
	551.9,82.3 551.5,82.4 551,82.6 550.6,82.6 550.1,82.7 549.7,82.7 549.2,82.8 548.7,82.8 548,82.8 547.2,82.7 546.5,82.6 
	545.9,82.6 545.2,82.4 544.5,82.2 543.9,82 543.3,81.7 542.6,81.4 542,81 541.3,80.6 540.6,80.1 539.9,79.6 539.2,79 538.4,78.3 
	537.5,77.6 535.9,83.3 536.8,83.8 537.7,84.2 538.5,84.6 539.3,84.9 540.1,85.3 540.9,85.6 541.7,85.8 542.5,86.1 543.3,86.3 
	544.1,86.4 544.8,86.6 545.6,86.7 546.4,86.8 547.2,86.8 548.1,86.9 549,86.9 549.7,86.9 550.5,86.8 551.2,86.8 552,86.7 
	552.7,86.6 553.4,86.4 554.1,86.3 554.8,86.2 555.5,85.9 556.1,85.7 556.7,85.5 557.3,85.2 557.9,84.9 558.4,84.6 558.9,84.3 
	559.4,84 560.1,83.5 560.7,82.9 561.3,82.3 561.8,81.7 562.3,81 562.8,80.4 563.2,79.7 563.6,78.9 564,78.2 564.2,77.4 564.5,76.6 
	564.7,75.8 564.9,75 565.1,74.2 565.1,73.3 565.1,72.5 565.1,71.9 565.1,71.4 565.1,70.8 565,70.3 564.9,69.8 564.8,69.3 
	564.7,68.7 564.5,68.2 564.3,67.8 564.1,67.3 563.9,66.8 563.7,66.3 563.5,65.9 563.1,65.4 562.9,65 562.5,64.5 562.2,64.1 
	561.9,63.7 561.5,63.3 561.1,63 560.7,62.6 560.2,62.2 559.7,61.8 559.2,61.4 558.6,61.1 558,60.7 557.4,60.3 556.7,59.9 
	555.9,59.6 555.1,59.2 554.3,58.8 553.4,58.4 552,57.7 550.7,57.1 549.6,56.4 548.6,56 547.6,55.4 546.9,54.9 546.5,54.6 
	546.2,54.3 545.9,54.1 545.6,53.8 545.3,53.6 545.1,53.3 544.9,53 544.7,52.8 544.5,52.5 544.3,52.2 544.2,52 544.1,51.6 544,51.4 
	543.9,51.1 543.8,50.8 543.8,50.4 543.7,49.7 543.7,49.1 543.7,48.7 543.7,48.3 543.7,48 543.8,47.6 543.9,47.3 544,46.9 
	544.1,46.6 544.3,46.3 544.4,46 544.6,45.7 544.8,45.4 544.9,45.1 545.2,44.8 545.4,44.6 545.6,44.3 545.9,44.1 546.2,43.8 
	546.4,43.6 546.7,43.4 547,43.2 547.3,43 547.6,42.9 548,42.8 548.4,42.6 548.7,42.5 549.1,42.4 549.5,42.3 549.8,42.2 550.2,42.2 
	550.6,42.1 551,42.1 551.4,42.1 552,42.1 552.6,42.1 553.2,42.2 553.8,42.3 554.4,42.4 555,42.5 555.5,42.8 556.1,42.9 556.7,43.2 
	557.4,43.5 558,43.8 558.6,44.2 559.3,44.5 559.9,44.9 560.6,45.4 561.3,45.9 562.8,40.9 562.1,40.5 561.3,40.2 "/>
<path class="st0" d="M582.7,46.7l7.6,21.3h-15.1L582.7,46.7z M564.8,86.2h4.5v-0.6v-0.5l0.1-0.4l0.1-0.5l4.6-12.8h17.5l4.5,12.8
	l0.1,0.5l0.1,0.5v0.5v0.5h9.2l-0.4-0.6l-0.3-0.5l-0.3-0.4l-0.2-0.5l-15.9-43.6v-0.4l-0.1-0.4v-0.4V39h-6.8v0.4v0.4v0.4l-0.1,0.5
	L566,84.1l-0.2,0.5l-0.2,0.4l-0.3,0.5L564.8,86.2z"/>
<path class="st0" d="M261.4,106.1h2.7h0.8h0.7h0.3h0.3h0.3h0.3h0.3h0.3l0.3,0.1l0.3,0.1l0.3,0.2l0.3,0.2l0.3,0.2l0.3,0.2l0.4,0.4
	l0.4,0.4l0.4,0.4l0.4,0.4l0.3,0.4l0.3,0.5l0.3,0.5l0.2,0.5l0.2,0.5l0.1,0.6l0.2,0.6l0.1,0.7v0.6v0.7v0.7v1.4v0.7v0.7v0.7l-0.1,0.6
	l-0.2,0.7l-0.1,0.6l-0.3,0.7l-0.1,0.4l-0.2,0.4l-0.2,0.4l-0.3,0.4v0.3l-0.3,0.4l-0.3,0.4l-0.3,0.3l-0.2,0.3l-0.2,0.8l-0.3,0.2
	l-0.3,0.2l-0.3,0.2l-0.3,0.2l-0.3,0.1l-0.3,0.1l-0.3,0.1h-0.3h-0.4h-0.4H266h-0.4h-4.3L261.4,106.1z M257.2,128v0.3v0.3v0.2h9.4h0.7
	h0.6h0.6l0.6-0.2l0.6-0.1l0.6-0.2l0.6-0.2l0.5-0.3l0.5-0.3l0.5-0.3l0.5-0.4l0.5-0.4l0.5-0.4l0.4-0.4l0.4-0.6l0.3-0.4l0.3-0.4
	l0.3-0.4l0.3-0.5l0.2-0.5l0.2-0.5l0.2-0.5l0.2-0.5l0.1-0.6l0.1-0.5v-0.6l0.1-0.6v-0.6v-0.6v-0.6v-0.6v-0.9v-0.8l-0.1-0.8l-0.1-0.8
	l-0.2-0.8l-0.3-0.7l-0.3-0.7l-0.3-0.7l-0.2-0.3l-0.2-0.3l-0.2-0.3l-0.2-0.3l-0.2-0.3l-0.3-0.3l-0.2-0.3l-0.3-0.3l-0.3-0.3l-0.2-0.2
	l-0.3-0.3l-0.3-0.3l-0.3-0.2l-0.3-0.2l-0.3-0.2l-0.3-0.2l-0.4-0.2l-0.4-0.2l-0.4-0.1l-0.4-0.2l-0.4-0.1l-0.4-0.1H269l-0.4-0.1h-0.5
	h-0.5l-0.5-0.1h-0.5h-0.5h-0.5H257v0.3v0.3v0.3v0.4V128H257.2z"/>
<polygon class="st0" points="298.9,105.8 299.2,105.8 299.5,105.8 299.8,105.9 300.1,106 300.1,104 287.2,104 287.3,104.2 
	287.3,104.5 287.4,104.8 287.4,105.2 287.4,127.6 287.4,127.9 287.3,128.3 287.3,128.6 287.2,128.8 300.1,128.8 300.1,126.7 
	299.7,126.7 299.4,126.8 299,126.8 298.7,126.8 291.5,126.8 291.5,117 298.8,117 299.1,117 299.5,117 299.8,117.1 300.1,117.1 
	300.1,115.1 299.8,115.2 299.4,115.2 299.1,115.3 298.7,115.3 291.5,115.3 291.5,105.8 "/>
<polygon class="st0" points="342.7,128.8 347.2,128.8 347,128.5 347,128.2 346.9,127.9 346.9,127.7 343.6,104.8 343.6,104.7 
	343.6,104.5 343.6,104.2 343.6,104 339.8,104 339.8,104 339.8,104.2 339.8,104.5 339.7,104.8 333,124.2 326.4,104.9 326.4,104.7 
	326.3,104.5 326.3,104.2 326.2,104 322.5,104 322.5,104.4 322.5,104.7 322.5,104.8 322.5,105 318.9,127.7 318.9,127.9 318.8,128.2 
	318.7,128.4 318.6,128.8 320.9,128.8 320.9,128.5 320.8,128.2 320.8,128 320.8,127.9 320.8,127.8 320.8,127.7 323.7,109.7 
	330,127.9 330.1,128.3 330.1,128.6 330.1,128.7 330.1,128.8 333.6,128.8 333.6,128.7 333.6,128.6 333.6,128.4 333.7,128.2 
	333.7,128 333.8,127.7 340.2,109.2 342.7,127.8 342.8,128 342.8,128.3 342.8,128.5 "/>
<polygon class="st0" points="356.6,104 356.7,104.2 356.7,104.5 356.8,104.8 356.8,105.2 356.8,127.6 356.8,127.9 356.7,128.3 
	356.7,128.6 356.6,128.8 361.1,128.8 361,128.6 361,128.3 361,128 360.9,127.6 360.9,105.2 361,104.8 361,104.5 361,104.2 
	361.1,104 "/>
<polygon class="st0" points="382.1,123.1 382,123.5 381.9,123.9 381.8,124.3 381.6,124.7 381.4,125 381.2,125.3 380.9,125.6 
	380.6,126 380.2,126.2 379.8,126.5 379.4,126.7 378.9,126.8 378.4,126.9 377.9,127 377.3,127 376.7,127 376.2,126.9 375.7,126.8 
	375.1,126.7 374.6,126.5 374.1,126.2 373.5,125.9 373.1,125.6 372.7,125.4 372.3,125.1 371.9,124.7 371.4,124.3 370.6,127.3 
	371.5,127.8 372.4,128.2 372.8,128.3 373.2,128.5 373.6,128.6 374,128.7 374.4,128.9 374.8,128.9 375.2,129 375.7,129.1 
	376.1,129.1 376.5,129.2 377,129.2 377.5,129.2 378.1,129.2 378.7,129.1 379.3,129.1 379.9,129 380.4,128.9 380.9,128.7 
	381.5,128.5 381.9,128.3 382.3,128 382.8,127.8 383.2,127.4 383.6,127.2 383.9,126.8 384.3,126.4 384.6,126 384.9,125.6 
	385.2,125.1 385.4,124.6 385.6,124.2 385.7,123.6 385.8,123.1 385.9,122.7 386,122.2 386,121.6 386,121 385.9,120.4 385.8,119.8 
	385.6,119.2 385.4,118.7 385.2,118.2 384.8,117.7 384.5,117.2 384.1,116.8 383.8,116.5 383.2,116.1 382.7,115.7 382.1,115.3 
	381.4,114.9 380.6,114.5 379.8,114.1 379.1,113.8 378.4,113.5 377.8,113.2 377.2,112.8 376.7,112.5 376.3,112.3 375.9,112 
	375.7,111.8 375.5,111.5 375.2,111.2 375.1,110.9 374.9,110.7 374.8,110.4 374.7,110 374.7,109.6 374.7,109.3 374.7,108.9 
	374.7,108.6 374.8,108.2 374.9,107.9 375.1,107.6 375.2,107.3 375.5,107.1 375.7,106.8 376,106.5 376.3,106.3 376.7,106 377,105.9 
	377.5,105.7 377.9,105.7 378.3,105.6 378.8,105.6 379.1,105.6 379.4,105.6 379.7,105.7 380,105.7 380.3,105.8 380.6,105.9 
	380.9,106 381.3,106.1 381.9,106.4 382.6,106.7 383.3,107.1 384,107.6 384.8,104.9 384.1,104.6 383.3,104.3 382.6,104.1 
	381.9,103.9 381.1,103.8 380.4,103.7 379.7,103.7 379,103.6 378.4,103.6 377.8,103.7 377.3,103.7 376.7,103.8 376.2,103.9 
	375.7,104 375.2,104.2 374.8,104.4 374.3,104.6 373.9,104.8 373.5,105.1 373.1,105.4 372.8,105.7 372.5,106 372.1,106.4 
	371.9,106.8 371.6,107.2 371.4,107.6 371.2,108 371,108.5 370.9,109 370.8,109.5 370.8,110 370.8,110.4 370.8,111 370.9,111.6 
	371,112.1 371.1,112.6 371.4,113.1 371.6,113.6 371.9,114 372.3,114.5 372.6,114.8 373,115.2 373.5,115.5 374,115.9 374.6,116.3 
	375.2,116.7 375.9,117 376.7,117.4 378,118.1 379.1,118.6 379.9,119.1 380.4,119.4 380.6,119.5 380.8,119.7 381,119.9 381.1,120.1 
	381.3,120.3 381.4,120.5 381.6,120.7 381.7,120.9 381.8,121.1 381.9,121.3 381.9,121.5 382,121.8 382,122 382.1,122.2 382.1,122.5 
	382.1,122.7 "/>
<polygon class="st0" points="407,105.8 407.3,105.8 407.6,105.8 407.8,105.9 408.1,106 408.1,104 395.3,104 395.3,104.2 
	395.4,104.5 395.4,104.8 395.4,105.2 395.4,127.6 395.4,127.9 395.4,128.3 395.3,128.6 395.3,128.8 408.1,128.8 408.1,126.7 
	407.7,126.7 407.4,126.8 407,126.8 406.7,126.8 399.6,126.8 399.6,117 406.8,117 407.2,117 407.5,117 407.8,117.1 408.1,117.1 
	408.1,115.1 407.8,115.2 407.5,115.2 407.1,115.3 406.8,115.3 399.6,115.3 399.6,105.8 "/>
<path class="st0" d="M422.5,105.8h2.3h0.5h0.5h0.4l0.4,0.2l0.4,0.2l0.3,0.2l0.3,0.2l0.2,0.2l0.2,0.2l0.2,0.2l0.1,0.2l0.1,0.2
	l0.1,0.3v0.2l0.1,0.3l0.1,0.2v0.3v0.3v0.3v0.3v0.6v0.3v0.6v0.3v0.3v0.3v0.3v0.3l-0.1,0.3v0.2l-0.1,0.3l-0.2,0.2l-0.2,0.2l-0.1,0.2
	l-0.2,0.2l-0.2,0.2l-0.3,0.1l-0.2,0.2l-0.3,0.2l-0.3,0.2l-0.4,0.1h-0.4l-0.3,0.1H425h-0.4h-2.3L422.5,105.8z M430,127.7l0.2,0.3
	l0.1,0.3l0.1,0.3l0.1,0.2h5.4l-0.2-0.2l-0.2-0.2l-0.3-0.3l-0.2-0.3l-8.2-10.6l0.8-0.1l0.7-0.2l0.7-0.2l0.6-0.2l0.5-0.2l0.4-0.2
	l0.4-0.2l0.4-0.3l0.4-0.3l0.3-0.3l0.3-0.3l0.3-0.3l0.2-0.4l0.2-0.4l0.1-0.4l0.2-0.4l0.1-0.5v-0.5v-0.5v-1v-0.4v-0.4V109l-0.1-0.4
	l-0.1-0.4l-0.2-0.4l-0.2-0.4l-0.3-0.3l-0.2-0.3l-0.3-0.3l-0.3-0.3l-0.3-0.3l-0.3-0.2l-0.4-0.3l-0.4-0.2l-0.5-0.3l-0.5-0.2l-0.5-0.2
	l-0.6-0.1l-0.6-0.1L427,104h-0.6h-8.2l0.1,0.3v0.3v0.3V128v0.3v0.3l-0.1,0.2h4.6v-0.3v-0.3v-11L430,127.7z"/>
<polygon class="st0" points="444.1,104 444.1,104.2 444.1,104.5 444.2,104.8 444.2,105.2 444.2,127.6 444.2,127.9 444.1,128.3 
	444.1,128.6 444.1,128.8 448.5,128.8 448.5,128.6 448.4,128.3 448.4,128 448.4,127.6 448.4,105.2 448.4,104.8 448.4,104.5 
	448.5,104.2 448.5,104 "/>
<polygon class="st0" points="462.8,115.7 462.9,115.2 462.9,114.7 463,114.1 463.1,113.6 463.2,113.1 463.2,112.6 463.3,112.1 
	463.5,111.6 463.6,111.2 463.8,110.8 464,110.3 464.2,109.9 464.4,109.5 464.7,109.1 464.9,108.7 465.2,108.4 465.5,108 
	465.8,107.7 466.1,107.4 466.4,107.1 466.7,106.8 467.1,106.7 467.5,106.4 467.9,106.2 468.3,106.1 468.7,106 469.2,105.8 
	469.6,105.7 470.1,105.7 470.6,105.7 471.1,105.6 471.5,105.6 471.9,105.7 472.3,105.7 472.7,105.8 473.1,105.8 473.4,105.9 
	473.7,106 474.1,106.2 474.4,106.3 474.7,106.5 475.1,106.7 475.4,106.9 475.9,107.2 476.3,107.4 476.6,107.7 477,108 477,104.7 
	476.3,104.4 475.6,104.2 474.9,104 474.2,103.9 473.5,103.8 472.7,103.7 471.9,103.6 471.1,103.6 470.1,103.7 469.2,103.7 
	468.2,103.8 467.3,104 466.9,104.1 466.5,104.2 466.1,104.3 465.7,104.4 465.3,104.6 464.9,104.8 464.5,104.9 464.2,105.1 
	463.8,105.3 463.5,105.5 463.2,105.7 462.8,106 462.5,106.2 462.2,106.4 461.9,106.7 461.6,107 461.4,107.2 461.1,107.6 
	460.9,107.9 460.6,108.2 460.4,108.5 460.2,108.9 460,109.2 459.8,109.6 459.6,109.9 459.5,110.3 459.3,110.6 459.2,111 
	458.9,111.7 458.8,112.5 458.6,113.4 458.5,114.3 458.5,115.2 458.4,116.2 458.4,117 458.5,117.8 458.5,118.5 458.6,119.2 
	458.7,119.9 458.9,120.6 459.1,121.2 459.2,121.8 459.5,122.4 459.7,123 460,123.6 460.3,124.1 460.6,124.6 460.9,125.1 
	461.3,125.6 461.7,126 462.1,126.4 462.5,126.7 463,127.1 463.4,127.4 463.9,127.7 464.4,127.9 464.9,128.2 465.5,128.4 466,128.6 
	466.6,128.7 467.2,128.9 467.9,129 468.5,129.1 469.2,129.1 469.9,129.2 470.6,129.2 471.5,129.2 472.3,129.1 473.1,129 
	473.9,128.9 474.6,128.6 475.4,128.4 476.2,128.1 477,127.7 477,124.4 476.6,124.8 476.3,125.1 475.9,125.4 475.5,125.6 
	475.2,125.9 474.9,126.1 474.5,126.3 474.2,126.5 473.9,126.6 473.5,126.7 473.2,126.8 472.8,126.9 472.4,127 472,127.1 
	471.6,127.1 471.2,127.1 470.8,127.1 470.3,127.1 469.9,127 469.4,126.9 469,126.8 468.6,126.7 468.2,126.5 467.8,126.4 
	467.5,126.2 467.1,125.9 466.7,125.7 466.4,125.5 466.1,125.2 465.8,124.9 465.5,124.6 465.2,124.2 464.9,123.8 464.6,123.4 
	464.4,123 464.2,122.6 464,122.2 463.8,121.7 463.6,121.2 463.4,120.7 463.3,120.2 463.2,119.7 463.1,119.2 463,118.7 462.9,118.1 
	462.9,117.5 462.8,116.9 462.8,116.3 "/>
<path class="st0" d="M488.8,115.6v-0.5v-0.6V114v-0.5V113v-0.5V112l0.1-0.5l0.1-0.5l0.1-0.4l0.2-0.4l0.2-0.4l0.2-0.4l0.2-0.4
	l0.2-0.4l0.7-0.4l0.3-0.3l0.3-0.3l0.3-0.3l0.3-0.3l0.3-0.3l0.4-0.2l0.4-0.2l0.4-0.2l0.4-0.1l0.4-0.1l0.4-0.1h0.5h0.5h0.5h0.5h0.5
	h0.4h0.5h0.4l0.4,0.1l0.4,0.3h0.4l0.4,0.2l0.4,0.2l0.3,0.2l0.3,0.2l0.3,0.3l0.3,0.3l0.3,0.3l0.3,0.3l0.2,0.3l0.3,0.4l0.2,0.4
	l0.2,0.4l0.2,0.4l0.2,0.4l0.1,0.5l0.1,0.4l0.1,0.5l0.1,0.5l0.1,0.5v0.6v0.6v0.6v0.6v2.5v0.6v0.5v0.6v0.5v0.4v0.5l-0.1,0.5l-0.1,0.4
	v0.4l-0.2,0.4l-0.2,0.4l-0.2,0.4l-0.2,0.4l-0.2,0.4l-0.2,0.4l-0.3,0.3l-0.3,0.3l-0.3,0.3l-0.3,0.3l-0.3,0.2l-0.4,0.2l-0.4,0.2
	l-0.4,0.2l-0.4,0.2l-0.4,0.1l-0.4,0.1h-0.4h-0.5l-0.7,0.3h-1h-0.5h-0.4h-0.4h-0.4l-0.4-0.1l-0.4-0.1l-0.4-0.1l-0.3-0.2l-0.4-0.2
	l-0.3-0.3l-0.3-0.2l-0.3-0.3l-0.3-0.3l-0.3-0.3l-0.3-0.3l-0.2-0.4l-0.2-0.4l-0.2-0.4l-0.2-0.4l-0.2-0.4l-0.1-0.5l-0.2-0.5l-0.1-0.5
	l-0.1-0.6l-0.1-0.6v-0.6V119v-0.6v-0.6v-0.7v-0.7L488.8,115.6z M484.4,118.4v0.7v0.7l0.2,0.7l0.2,0.7l0.1,0.6l0.2,0.6l0.2,0.6
	l0.3,0.6l0.3,0.5l0.3,0.5l0.3,0.5l0.3,0.4l0.4,0.4l0.4,0.4l0.4,0.4l0.4,0.3l0.5,0.3l0.5,0.3l0.5,0.3l0.6,0.2l0.6,0.2l0.6,0.2
	l0.6,0.1l0.6,0.2h0.6h0.7h0.7h0.7h0.7h0.8h0.7h0.7h0.6h0.6l0.6-0.2l0.6-0.1l0.6-0.2l0.6-0.2l0.5-0.3l0.5-0.3l0.5-0.3l0.5-0.3
	l0.5-0.3l0.4-0.3l0.4-0.4l0.4-0.4l0.4-0.4l0.4-0.5l0.3-0.5l0.3-0.6l0.3-0.5l0.2-0.6l0.2-0.6l0.2-0.6l0.2-0.6l0.1-0.7v-0.7l0.1-0.7
	v-0.7V117v-1.6v-0.8V114v-0.7l-0.1-0.7l-0.1-0.7l-0.2-0.6l-0.2-0.6l-0.3-0.6l-0.2-0.6L507,109l-0.3-0.6l-0.3-0.4l-0.4-0.5l-0.4-0.4
	l-0.4-0.4l-0.4-0.4l-0.4-0.3l-0.4-0.3l-0.4-0.3l-0.5-0.3l-0.5-0.3l-0.5-0.2l-0.5-0.2l-0.6-0.2l-0.6-0.1l-0.6-0.1l-0.6-0.1h-0.6H498
	h-0.7h-0.7h-0.9h-0.9l-0.9,0.1l-0.7,0.1l-0.8,0.2l-0.8,0.2l-0.4,0.1l-0.4,0.1l-0.4,0.1l-0.3,0.2l-0.3,0.2l-0.3,0.2l-0.3,0.2
	l-0.3,0.2l-0.3,0.2l-0.3,0.3l-0.3,0.2l-0.3,0.3l-0.3,0.3l-0.3,0.3l-0.2,0.3l-0.3,0.3l-0.2,0.3l-0.2,0.3l-0.2,0.3l-0.2,0.4l-0.2,0.4
	l-0.2,0.4l-0.1,0.4l-0.2,0.4l-0.1,0.4l-0.1,0.4l-0.1,0.4l-0.1,0.4l-0.1,0.9l-0.1,0.9v0.9v1.8v0.7L484.4,118.4z"/>
<polygon class="st0" points="497,96.8 494.4,102.5 496.3,102.5 500.2,96.8 "/>
<path class="st0" d="M522.9,105.8h2.3h0.5h0.5h0.4l0.4,0.2l0.4,0.2l0.3,0.2l0.4,0.2l0.1,0.2l0.2,0.2l0.2,0.2l0.1,0.2l0.2,0.2
	l0.1,0.6l0.1,0.2l0.1,0.3v0.2v0.3v0.3v0.3v0.3v0.3v0.3v0.6v0.3v0.3v0.3v0.3v0.3v0.3l-0.1,0.2l-0.1,0.3l-0.1,0.2l-0.2,0.2l-0.1,0.2
	l-0.2,0.2l-0.2,0.2l-0.3,0.1l-0.2,0.2l-0.3,0.2l-0.3,0.2l-0.3,0.1h-0.4l-0.3,0.1h-0.4h-0.4H523L522.9,105.8z M530.4,127.7l0.1,0.3
	l0.1,0.3l0.1,0.3l0.1,0.2h5.4l-0.3-0.2l-0.2-0.2l-0.2-0.3l-0.3-0.3l-8.1-10.6l0.8-0.1l0.7-0.2l0.6-0.2l0.6-0.2l0.5-0.2l0.5-0.2
	l0.4-0.2l0.4-0.3l0.4-0.3l0.3-0.3l0.3-0.3l0.3-0.3l0.2-0.4l0.2-0.4l0.2-0.4l0.1-0.4v-0.5v-0.5v-0.5v-1v-0.4v-0.4V109l-0.1-0.4
	l-0.2-0.4l-0.2-0.4l-0.2-0.4l-0.2-0.3l-0.3-0.3l-0.3-0.3l-0.3-0.3l-0.3-0.3l-0.3-0.2l-0.4-0.3l-0.4-0.2l-0.5-0.3l-0.5-0.2l-0.6-0.3
	l-0.5-0.1l-0.6-0.1h-0.6h-0.6h-8.2v0.3v24.2v0.2h4.5v-0.3v-0.3V128v-10.6L530.4,127.7z"/>
<path class="st0" d="M548.6,106.1h3.4h0.7h0.4h0.3h0.3h0.3h0.3h0.3l0.3,0.1l0.3,0.1l0.3,0.2l0.3,0.2l0.3,0.2l0.3,0.2l0.4,0.4
	l0.4,0.4l0.4,0.4l0.4,0.4l0.3,0.4l0.3,0.5l0.3,0.5l0.3,0.5l0.2,0.5l0.2,0.6l0.2,0.6v0.6l0.1,0.6v0.7v0.7v1.4v0.7v0.7l-0.1,0.7v0.6
	l-0.2,0.7l-0.2,0.6l-0.2,0.7l-0.2,0.4l-0.2,0.4l-0.2,0.4l-0.3,0.4l-0.2,0.4l-0.3,0.4l-0.3,0.4l-0.3,0.3l-0.2,0.3l-0.3,0.8l-0.3,0.2
	l-0.3,0.2l-0.3,0.2l-0.3,0.2l-0.3,0.1l-0.3,0.1h-0.4h-0.3h-0.4h-0.4H553h-0.7H552h-3.4V106.1z M544.4,127.7v0.3v0.3v0.3v0.2h9.4h0.7
	h0.6h0.6l0.6-0.2l0.6-0.1l0.6-0.3l0.6-0.2l0.5-0.3l0.6-0.3l0.5-0.3l0.5-0.4l0.5-0.4l0.5-0.4l0.4-0.4l0.4-0.6l0.3-0.4l0.3-0.4
	l0.3-0.4l0.3-0.5l0.3-0.5l0.2-0.5l0.2-0.5l0.2-0.5l0.1-0.6l0.1-0.5l0.1-0.6V119v-0.6v-0.6v-0.6v-0.6v-0.9v-0.8l-0.1-0.8l-0.1-0.8
	l-0.2-0.8l-0.2-0.7l-0.3-0.7l-0.3-0.7l-0.2-0.3l-0.2-0.3l-0.2-0.3l-0.2-0.3l-0.2-0.3l-0.2-0.3l-0.2-0.3l-0.3-0.3l-0.2-0.3l-0.3-0.2
	l-0.3-0.3l-0.3-0.3l-0.3-0.2l-0.3-0.2l-0.4-0.2l-0.4-0.2l-0.4-0.2l-0.4-0.2l-0.4-0.2l-0.4-0.2l-0.4-0.1l-0.4-0.1h-0.4l-0.5-0.1h-0.4
	h-0.5l-0.5-0.1h-0.5h-0.5h-0.5h-8.7v0.3v0.3v0.3v22.1L544.4,127.7z"/>
<polygon class="st0" points="574.6,104 574.6,104.2 574.7,104.5 574.7,104.8 574.7,105.2 574.7,127.6 574.7,127.9 574.7,128.3 
	574.6,128.6 574.6,128.8 579,128.8 579,128.6 578.9,128.3 578.9,128 578.9,127.6 578.9,105.2 578.9,104.8 578.9,104.5 579,104.2 
	579,104 "/>
<path class="st0" d="M593,119.2l3.9-11.2l4,11.2H593z M600,104.6v-0.2v-0.2V104h-3.6v0.2v0.3v0.2v0.2l-8.1,23l-0.1,0.2l-0.1,0.3v0.3
	l-0.2,0.2h2.4v-0.6V128v-0.2l2.2-6.9h9.3l2.4,6.8v0.2v0.3v0.3v0.2h4.9l-0.2-0.3l-0.1-0.3l-0.1-0.3l-0.1-0.2l-8.5-23.1L600,104.6z"/>
<rect x="255.2" y="139.8" class="st0" width="353.6" height="3.8"/>
</svg>
