<?xml version="1.0" encoding="utf-8"?>
<!-- Generator: Adobe Illustrator 24.2.3, SVG Export Plug-In . SVG Version: 6.00 Build 0)  -->
<svg version="1.1" id="Layer_1" xmlns="http://www.w3.org/2000/svg" xmlns:xlink="http://www.w3.org/1999/xlink" x="0px" y="0px"
	 viewBox="0 0 1220 354" style="enable-background:new 0 0 1220 354;" xml:space="preserve">
<style type="text/css">
	.st0{fill:#FFFFFF;}
</style>
<g>
	<path class="st0" d="M26.6,37.1c371.3,0,742.6,0,1113.8,0c0,96.4-0.1,192.8,0,289.3c-158.6,0.2-317.1,0-475.7,0.1
		c-212.7,0-425.4,0-638.2,0C26.5,230,26.5,133.6,26.6,37.1L26.6,37.1z M43.9,55L43.9,55c0,84.4,0,168.8,0,253.1
		c359.7,0.1,719.4,0.1,1079.1,0c0-84.4,0-168.8,0-253.2C763.2,55,403.5,54.9,43.9,55L43.9,55z"/>
	<path class="st0" d="M1168.1,38.1c6.3-2.3,13.8-1,18.7,3.8c7.6,7.3,7,21.8-1.5,28.2c-7.9,6.3-20.8,4.3-26-4.7
		C1153.6,56,1157.5,41.5,1168.1,38.1L1168.1,38.1z M1170.1,42.2L1170.1,42.2c-9.7,3.3-11.1,18.5-3.3,24.7c4.2,3.1,10.5,3.6,14.8,0.3
		c5.9-4.4,7.1-13.8,3.2-20C1181.8,42.2,1175.3,40.3,1170.1,42.2L1170.1,42.2z"/>
	<path class="st0" d="M61.4,73.3c348.1,0,696.1,0,1044.2,0c0,72.4-0.1,144.7,0,217c-348.1,0.1-696.2,0-1044.2,0.1
		C61.4,218,61.4,145.6,61.4,73.3L61.4,73.3z M824.8,107.1L824.8,107.1c-12.6,0.5-25.5,3.8-35.8,11.6c-10.7,7.4-18.8,18.4-23.5,30.8
		c-3.8,10.3-4.8,21.5-4.7,32.6c-0.2,11.1,1,22.3,4.8,32.6c5.4,13.6,14.8,25.6,27.2,32.8c9.4,6.3,20.6,8.6,31.6,9.2
		c8.2,0.6,16.4,0.1,24.5-1.2c16.4-2.7,31.4-12.8,40.8-27c7.7-11,11.4-24.6,11.9-38.1c0.4-12.9,0.4-26.3-3.8-38.6
		c-5.1-16-16.6-29.5-30.9-37.3C854.1,107.5,839.1,106.4,824.8,107.1L824.8,107.1z M96.2,109.4L96.2,109.4c0,48.2,0,96.5,0,144.8
		c11.9-0.1,23.8,0,35.8,0c0-22.8,0-45.7,0-68.5c18.2,22.8,36.5,45.6,54.7,68.5c14.9,0.1,29.8,0,44.7,0
		c-13.3-17.5-26.4-35.1-39.7-52.7c7-2.8,13.8-6.7,18.8-12.6c9.9-10.1,14.6-25.3,12.5-39.5c-2.3-20.2-18.6-39-38.7-39.9
		C154.9,109.3,125.6,109.5,96.2,109.4L96.2,109.4z M307.8,109.5L307.8,109.5c-18.6,48.2-37.1,96.5-55.7,144.7c13.5,0,26.9,0,40.4,0
		c2.6-7.5,5.2-15,7.8-22.5c18.4,0,36.8,0,55.2,0c2.3,7.5,4.7,15,7.1,22.5c13.8,0,27.6,0,41.4,0c-18.8-48.3-37.7-96.4-56.4-144.7
		C334.3,109.5,321,109.4,307.8,109.5L307.8,109.5z M426.3,109.5L426.3,109.5c0,48.2,0,96.5,0,144.7c12.2,0,24.4,0,36.7,0
		c0-31.2,0-62.5,0-93.7c16.2,31.3,32.6,62.5,48.9,93.7c18-0.1,36.1,0.1,54.1-0.1c-0.1-48.2,0-96.4-0.1-144.6c-11.8,0-23.6,0-35.4,0
		c0,31,0,62,0,93.1c-17.3-31.1-34.7-62-52-93C461.1,109.5,443.7,109.4,426.3,109.5L426.3,109.5z M601.2,110.1L601.2,110.1
		c0,48,0,96,0,144.1c16,0,32,0,47.9,0c16,0.3,32-1.7,47.2-6.7c13.2-4.2,24.7-13.8,31.5-26.3c9.1-16.8,9.1-36.9,7.1-55.5
		c-2.1-20.5-15.5-39.2-33.8-47c-17.6-6.6-36.4-8.8-55-8.6C631.1,110.1,616.1,110.1,601.2,110.1L601.2,110.1z M931.5,110.1
		L931.5,110.1c0,48,0,96.1,0,144.1c12,0,24.1,0,36.1,0c0.1-31,0-62.1,0-93.1c16.6,31,33.2,62,49.7,93.1c17.9,0,35.8,0.1,53.7-0.1
		c-0.1-48-0.1-96,0-144c-12,0-24-0.1-36,0c0.1,30.8,0.1,61.7,0,92.5c-17.1-30.9-34.4-61.6-51.4-92.5
		C966.2,110,948.9,110.2,931.5,110.1L931.5,110.1z"/>
	<path class="st0" d="M825,136c7.9-1.3,17-0.7,23,5.3c9.1,7.8,10.9,20.6,12.2,32c0.4,8.7,0.6,17.5-1.3,26.1
		c-1.2,10.8-6.7,21.8-16.3,26.8c-5.4,2.1-11.4,2.8-17.1,1.6c-9.6-1.4-16.5-10.1-19.6-19.1c-4.1-13.1-4.5-27.2-2.9-40.8
		c1.4-9,3.6-18.5,10.2-25C816.5,139.5,820.4,136.7,825,136L825,136z"/>
	<path class="st0" d="M637.1,139c13.8,0.6,28.6-2.1,41.5,4.4c7.3,3.2,13.1,9.6,16,17.2c5.1,13.6,5.3,29.2,0.1,42.8
		c-3.2,8.8-10.5,15.8-19,18.8c-12.3,4.8-25.7,2.4-38.5,3C637.1,196.5,637.1,167.8,637.1,139L637.1,139z"/>
	<path class="st0" d="M131.9,140.4c13.9,0.1,27.8-0.1,41.7,0.1c10.6,0.5,18.5,12.9,15.4,23.4c-1.9,7.1-7.9,13.5-15.3,13.5
		c-13.9,0.3-27.8,0.1-41.8,0.1C131.9,165.2,132,152.8,131.9,140.4L131.9,140.4z"/>
	<path class="st0" d="M310,203.3c5.9-17.9,11.5-35.9,17.5-53.8c6.1,17.9,12.1,35.9,18.2,53.8C333.8,203.3,322,203.5,310,203.3
		L310,203.3z"/>
	<g>
		<path class="st0" d="M1166.7,65.1V45.6h8.3c2.1,0,3.6,0.2,4.6,0.5c0.9,0.4,1.7,1,2.3,1.9c0.6,0.9,0.9,1.9,0.9,3.1
			c0,1.5-0.4,2.7-1.3,3.6c-0.9,1-2.2,1.6-3.9,1.8c0.9,0.5,1.6,1,2.1,1.6c0.6,0.6,1.3,1.6,2.2,3.2l2.4,3.8h-4.7l-2.9-4.2
			c-1-1.5-1.7-2.5-2.1-2.9c-0.4-0.4-0.8-0.7-1.2-0.8c-0.4-0.1-1.1-0.2-2-0.2h-0.8v8.1H1166.7z M1170.6,53.8h2.9
			c1.9,0,3.1-0.1,3.6-0.2c0.5-0.2,0.8-0.4,1.1-0.8c0.3-0.4,0.4-0.9,0.4-1.5c0-0.7-0.2-1.2-0.5-1.6c-0.4-0.4-0.8-0.7-1.5-0.8
			c-0.3,0-1.3-0.1-2.9-0.1h-3.1V53.8z"/>
	</g>
</g>
</svg>
