<svg xmlns="http://www.w3.org/2000/svg" viewBox="0 0 372.32 749.29"><defs><style>.cls-1{fill:none;stroke:#fff;stroke-miterlimit:10;stroke-width:2px;}</style></defs><g id="Camada_2" data-name="Camada 2"><g id="Graphic_Elements" data-name="Graphic Elements"><path class="cls-1" d="M365.23,51.37V697.92a46.49,46.49,0,0,1-.49,6.71c-.09.53-.19,1.08-.29,1.61a44.22,44.22,0,0,1-2.28,7.87c-.19.52-.41,1-.63,1.54a45.36,45.36,0,0,1-5.24,8.93l-.61.78a44.63,44.63,0,0,1-4.72,5.1c-.69.64-1.4,1.25-2.13,1.84-.26.23-.52.43-.78.62-.79.61-1.59,1.19-2.41,1.75l-.15.11-1.53,1c-.56.35-1.14.68-1.72,1s-1.18.63-1.78.92c-.29.14-.6.3-.89.43s-.61.29-.92.42c-.92.4-1.85.77-2.81,1.11-.63.24-1.27.45-1.91.64l-1,.3c-1,.26-2,.51-3,.72l-1,.2-1,.17c-.68.11-1.37.22-2.06.29-.49.07-1,.1-1.46.14l-1.22.07c-.76,0-1.51.06-2.28.06H51.39c-.78,0-1.54,0-2.31-.06l-1.21-.07c-.8-.06-1.58-.13-2.37-.22l.9.08a44.37,44.37,0,0,1-39.32-44V51.37a44.36,44.36,0,0,1,42-44.24h0c.76,0,1.51-.06,2.28-.06H320.94c.77,0,1.51,0,2.27.06h0l1.22.07,1.19.1A44.38,44.38,0,0,1,365.23,51.37Z"/><path class="cls-1" d="M320.94,1H51.38A50.38,50.38,0,0,0,1,51.37V697.92a50.38,50.38,0,0,0,50.38,50.37H320.94a50.38,50.38,0,0,0,50.38-50.37V51.37A50.38,50.38,0,0,0,320.94,1Zm30,729.46c-.69.64-1.4,1.25-2.13,1.84-.26.23-.52.43-.78.62-.79.61-1.59,1.19-2.41,1.75l-.15.11-1.53,1c-.56.35-1.14.68-1.72,1s-1.18.63-1.78.92c-.29.14-.6.3-.89.43s-.61.29-.92.42c-.92.4-1.85.77-2.81,1.11-.63.24-1.27.45-1.91.64l-1,.3c-1,.26-2,.51-3,.72l-1,.2-1,.17c-.68.11-1.37.22-2.06.29-.49.07-1,.1-1.46.14l-1.22.07c-.76,0-1.51.06-2.28.06H51.39c-.78,0-1.54,0-2.31-.06l-1.21-.07c-.8-.06-1.58-.13-2.37-.22l.9.08a44.37,44.37,0,0,1-39.32-44V51.37a44.36,44.36,0,0,1,42-44.24h0c.76,0,1.51-.06,2.28-.06H320.94c.77,0,1.51,0,2.27.06h0l1.22.07,1.19.1a44.38,44.38,0,0,1,39.6,44.07V697.92a46.49,46.49,0,0,1-.49,6.71c-.09.53-.19,1.08-.29,1.61a44.22,44.22,0,0,1-2.28,7.87c-.19.52-.41,1-.63,1.54a45.36,45.36,0,0,1-5.24,8.93l-.61.78A44.63,44.63,0,0,1,351,730.46Z"/><rect class="cls-1" x="163.52" y="27.28" width="43.02" height="4.52" rx="1.77"/><path class="cls-1" d="M322.73,24.44h-.25l-.36,0c-.43,0-.82,0-1.19,0H282a4.5,4.5,0,0,0-4.25,4c0,.15,0,.3,0,.46v.05a21.48,21.48,0,0,1-21.46,20.47H116A21.49,21.49,0,0,1,94.54,28.92v-.05c0-.16,0-.31,0-.46a4.49,4.49,0,0,0-4.24-4H51.39c-.37,0-.76,0-1.19,0l-.37,0h-.24A27,27,0,0,0,24.38,51.38V697.92a27.13,27.13,0,0,0,24.85,26.92l.37,0H50l1.41,0H320.93c.47,0,.94,0,1.4,0h.39l.36,0a27.13,27.13,0,0,0,24.86-26.92V51.38A27,27,0,0,0,322.73,24.44Z"/></g></g></svg>