<?xml version="1.0" encoding="utf-8"?>
<!-- Generator: Adobe Illustrator 24.2.3, SVG Export Plug-In . SVG Version: 6.00 Build 0)  -->
<svg version="1.1" id="Camada_1" xmlns="http://www.w3.org/2000/svg" xmlns:xlink="http://www.w3.org/1999/xlink" x="0px" y="0px"
	 viewBox="0 0 117 39.7" style="enable-background:new 0 0 117 39.7;" xml:space="preserve">
<style type="text/css">
	.st0{fill:#FFFFFF;}
</style>
<g id="Camada_2_1_">
	<g id="svg13869">
		<g id="layer1">
			<g id="g1422">
				<path id="path1420" class="st0" d="M34.3,30.7c-0.9-0.1-1.7-0.4-2.4-0.8c-2-1-3.3-3-3.5-5.2c-0.1-1-0.1-2,0-3
					C28.7,19,30,17,32.1,16c2.3-1,4.9-1,7.1,0c2.4,1.2,3.6,3.6,3.8,7.2v0.7h-5.2h-5.2v0.3c0,0.5,0.2,1.1,0.4,1.6
					c0.1,0.3,0.3,0.6,0.6,0.8c0.6,0.6,1.4,0.9,2.2,0.9c0.8,0.1,1.6-0.1,2.3-0.6c0.6-0.5,1.2-1.1,1.5-1.8c0-0.1,0.1-0.1,0.1-0.1
					c0,0,0.8,0.4,1.6,0.8l1.6,0.8L42.5,27c-1,1.6-2.4,2.7-4.2,3.4c-0.8,0.3-1.7,0.4-2.7,0.4C35.3,30.8,34.8,30.7,34.3,30.7
					L34.3,30.7z M38.6,21c-0.1-0.7-0.3-1.3-0.8-1.9c-0.4-0.4-0.8-0.6-1.3-0.7c-1-0.3-2.1,0-2.8,0.8c-0.2,0.2-0.4,0.5-0.6,0.8
					c-0.1,0.2-0.2,0.5-0.3,0.7c0,0.2-0.1,0.3-0.1,0.4c0,0,0.1,0.1,3,0.1h3L38.6,21z M49.9,30.6c-2.2-0.1-4.3-1.1-5.9-2.6l-0.2-0.2
					l1.4-1.2l1.4-1.2l0.3,0.3c0.7,0.6,1.5,1.1,2.5,1.5c0.3,0.1,0.6,0.2,0.9,0.2c0.3,0,0.7,0,1,0c1.3-0.1,2.1-0.6,2.1-1.4
					s-0.6-1-2.3-1.3c-1.4-0.2-2.8-0.5-4.1-1.1c-0.7-0.4-1.3-0.9-1.7-1.7c-0.3-0.6-0.4-1.2-0.4-1.8c0-0.4,0-0.8,0.2-1.1
					c0.8-2.7,3.7-4.1,7.4-3.6c1.2,0.1,2.3,0.5,3.3,1c0.6,0.3,1.2,0.7,1.7,1.1c0,0-0.6,0.6-1.3,1.3l-1.3,1.2l-0.3-0.2
					c-1.1-0.9-2.5-1.3-3.9-1.2c-1,0.1-1.5,0.5-1.5,1.1c0,0.2,0.1,0.4,0.3,0.6c0.3,0.3,0.7,0.4,2.2,0.7c1.6,0.2,3.1,0.7,4.5,1.5
					c0.8,0.5,1.3,1.2,1.6,2.1c0.1,0.4,0.1,0.8,0.1,1.2c0,0.4,0,0.8-0.1,1.2c-0.2,0.5-0.4,1-0.7,1.5c-1.2,1.3-2.8,2.2-4.6,2.3
					C51.5,30.6,50.7,30.6,49.9,30.6L49.9,30.6z M64.9,30.6c-2.3-0.1-4.4-1-6.1-2.6l-0.2-0.2l0.2-0.2c0.1-0.1,0.7-0.6,1.3-1.2l1.2-1
					l0.4,0.3c0.8,0.8,1.9,1.3,3,1.6c0.6,0.1,1.2,0.1,1.8,0c0.5-0.1,0.9-0.3,1.3-0.6c0.4-0.3,0.5-0.9,0.3-1.3
					c-0.1-0.2-0.3-0.3-0.6-0.4c-0.6-0.2-1.3-0.4-1.9-0.4c-3.4-0.5-4.8-1.3-5.5-2.8c-0.2-0.5-0.4-1.1-0.3-1.7c0-0.9,0.2-1.7,0.7-2.4
					c1.1-1.7,3.3-2.6,5.9-2.5c2,0.1,3.9,0.7,5.5,1.8l0.6,0.4l-0.1,0.1l-1.3,1.2l-1.2,1.1l-0.1-0.1c-0.4-0.3-0.9-0.6-1.3-0.8
					c-1.1-0.6-2.3-0.7-3.4-0.4c-0.9,0.3-1.1,1.1-0.5,1.6c0.6,0.3,1.3,0.5,2,0.6c1.3,0.2,2.6,0.6,3.8,1.1c1.1,0.5,2,1.4,2.3,2.6
					c0.1,0.7,0.1,1.4,0,2.2c-0.1,0.5-0.3,1-0.6,1.4c-0.4,0.5-0.8,0.9-1.3,1.3c-1,0.7-2.2,1.1-3.4,1.2C66.4,30.6,65.6,30.6,64.9,30.6
					L64.9,30.6z M0,19.6V9h4c1.8-0.1,3.6,0,5.4,0.2c1.5,0.2,3,0.7,4.2,1.5c2,1.3,3.1,3.7,3.5,7.2c0.1,1.1,0.1,2.3,0,3.4
					c0,1.5-0.4,3-1,4.3c-1.4,2.8-3.9,4.3-7.6,4.6c-0.4,0-2.5,0-4.6,0H0V19.6z M7,26.2c1.4,0,2.7-0.5,3.7-1.4
					c0.9-0.9,1.5-2.2,1.6-3.5c0.1-1.3,0.1-2.6,0-3.9c-0.3-2-1-3.1-2.3-3.8c-1-0.5-1.4-0.5-3.6-0.6H4.6v13.1h0.8
					C5.9,26.3,6.6,26.3,7,26.2L7,26.2z M19.2,23v-7.4h4.2v0.7c0,0.2,0,0.5,0,0.7c0.1-0.1,0.3-0.2,0.4-0.3c0.5-0.4,1.1-0.7,1.7-0.9
					c0.6-0.2,1.2-0.3,1.8-0.4h0.3v3.8l-0.8,0.1c-1.9,0.3-2.6,0.5-2.9,1.1s-0.3,0.2-0.3,5.2v4.5h-4.3L19.2,23z M73.3,30.3
					c0,0,1.8-4.8,4-10.6l4-10.6h1.6l0.1,0.2c0,0.1,1.8,4.9,3.9,10.6l3.8,10.4h-1c-0.3,0-0.7,0-1,0c0,0-0.5-1.5-1.1-3.2l-1.1-3.2
					h-8.8l-0.2,0.7c-0.1,0.4-0.6,1.8-1.1,3.2l-0.9,2.6h-1.1C74,30.3,73.6,30.3,73.3,30.3L73.3,30.3z M85.8,22.3c0,0-0.8-2.5-1.8-5.4
					s-1.9-5.3-1.9-5.3c0,0-3.8,10.5-3.8,10.7c0,0.2,0.1,0.1,3.8,0.1C83.3,22.4,84.6,22.4,85.8,22.3L85.8,22.3z M93.1,19.7V9h1.7
					v19.6h9.1v1.7H93.1V19.7z M106.2,19.7V9h1.7v19.6h9.1v1.7h-10.8L106.2,19.7z"/>
			</g>
		</g>
	</g>
</g>
</svg>
